<?xml version="1.0" encoding="utf-8"?>
<!-- Generator: Adobe Illustrator 18.1.1, SVG Export Plug-In . SVG Version: 6.00 Build 0)  -->
<svg version="1.1" id="Layer_1" xmlns="http://www.w3.org/2000/svg" xmlns:xlink="http://www.w3.org/1999/xlink" x="0px" y="0px"
	 viewBox="0 0 612 282" enable-background="new 0 0 612 282" xml:space="preserve">
<rect y="0" fill-rule="evenodd" clip-rule="evenodd" fill="#FFFFFF" width="612" height="282"/>
<g>
	<g>
		<rect x="22.6" y="22.8" fill="#134B8E" width="568" height="237.2"/>
		<path fill="#FFFFFF" d="M176.3,72.2c5.3,8.5,5.5,20.7,0.3,29.8c-6.7,11.2-18.4,16.7-31.5,14.4c-8.1-1.5-15.3-6.7-19.6-13.8
			c-6.9,13.8-23.1,13.6-36.6,12.8c-7.5-1.1-15.5-6.3-19.8-13.7c-4.8-8.1-4.3-20.4,0.3-28.5c5-8.9,12.7-14.2,24.3-14.2l24.8,0l0,15.8
			l-24.4,0c-4.9,0-10,3.9-10,11.3c0,7,4.3,11.8,10.1,11.8l29,0v0c-4-9.9-1.8-22.5,5.6-30.4c6.8-7.8,17.8-11.5,28-9.3
			C164.5,59.7,172.7,65.6,176.3,72.2"/>
		<path fill="none" stroke="#FFFFFF" stroke-width="0" stroke-linecap="square" stroke-miterlimit="2" d="M176.3,72.2
			c5.3,8.5,5.5,20.7,0.3,29.8c-6.7,11.2-18.4,16.7-31.5,14.4c-8.1-1.5-15.3-6.7-19.6-13.8c-6.9,13.8-23.1,13.6-36.6,12.8
			c-7.5-1.1-15.5-6.3-19.8-13.7c-4.8-8.1-4.3-20.4,0.3-28.5c5-8.9,12.7-14.2,24.3-14.2l24.8,0l0,15.8l-24.4,0c-4.9,0-10,3.9-10,11.3
			c0,7,4.3,11.8,10.1,11.8l29,0v0c-4-9.9-1.8-22.5,5.6-30.4c6.8-7.8,17.8-11.5,28-9.3C164.5,59.7,172.7,65.6,176.3,72.2z"/>
		<path fill="#FFFFFF" d="M206.2,97.8l28.5,0l0-38.7l29.1,0c16.8,0,28.4,11.5,28.4,27.1c0,15.8-11.4,29.5-27.6,29.5h-29.9l0-14.4
			c-1.6,7.3-7.3,14.4-16.2,14.4c0.1,0-19.1,0-19.1,0c-8.9,0-15.8-7.3-15.8-14.6l0-42h22.6L206.2,97.8z"/>
		<path fill="none" stroke="#FFFFFF" stroke-width="0" stroke-linecap="square" stroke-miterlimit="2" d="M206.2,97.8l28.5,0l0-38.7
			l29.1,0c16.8,0,28.4,11.5,28.4,27.1c0,15.8-11.4,29.5-27.6,29.5h-29.9l0-14.4c-1.6,7.3-7.3,14.4-16.2,14.4c0.1,0-19.1,0-19.1,0
			c-8.9,0-15.8-7.3-15.8-14.6l0-42h22.6L206.2,97.8z"/>
		<path fill="#FFFFFF" d="M344,95.3c0,1.8,2.2,3.1,4.3,3.1c2,0,4.3-1.2,4.3-3.1l0-23.2c0-8.4,5.7-13.1,12.4-13.1c0,0,8.7,0,8.7,0
			l0,40.5c0,6.8-5,12.2-11,14.5c-9.5,3-20.5,2.1-27.7-5.3c-6.9,7.7-17,7.7-25.7,6.3C302.4,114,295,108,295,99.4V59.1h20.5l0,35.2
			c0,2.7,2.2,3.8,4.3,3.8c1.7,0,4.2-0.9,4.2-3.3V59.1c0.1,0,20.3,0,20,0L344,95.3z"/>
		<path fill="none" stroke="#FFFFFF" stroke-width="0" stroke-linecap="square" stroke-miterlimit="2" d="M344,95.3
			c0,1.8,2.2,3.1,4.3,3.1c2,0,4.3-1.2,4.3-3.1l0-23.2c0-8.4,5.7-13.1,12.4-13.1c0,0,8.7,0,8.7,0l0,40.5c0,6.8-5,12.2-11,14.5
			c-9.5,3-20.5,2.1-27.7-5.3c-6.9,7.7-17,7.7-25.7,6.3C302.4,114,295,108,295,99.4V59.1h20.5l0,35.2c0,2.7,2.2,3.8,4.3,3.8
			c1.7,0,4.2-0.9,4.2-3.3V59.1c0.1,0,20.3,0,20,0L344,95.3z"/>
		<path fill="#FFFFFF" d="M447.2,73.1c0.8,7.5-1.7,12.1-4.3,14.8c-3.3,3.4-7.4,5.2-13,5.2l-13.6,0c-7.9,0-13-5.4-13-12.5v-1.5l20,0
			c1.6,0,2.6-1.3,2.6-2.6c0-1.3-0.8-2.8-3-2.8l-11.7,0c-7.1,0-11.8,4.7-11.7,11.3c0.1,6,4.2,13.5,14.8,13.5l37.2,0
			c0,0,0-39.5,0-39.5l20.8,0l0,39h28.5l0-39l20.9,0v39l28.4,0c0,9.3-5.1,17.6-14.2,17.6c0,0-20.2,0-20.2,0
			c-9.1,0-14.9-7.1-14.9-15.2c0,8.1-6.2,15.2-14.7,15.2c0,0-19.2,0-19.2,0c-7.9,0-15.3-6.4-15.4-15l0,0c-1.2,6.6-8.9,14.9-16.8,15
			c0.1,0-30.3,0-30.4,0c-10,0-19.1-7.7-23.5-17.1c-3.5-8.2-2.9-18.9,1.6-26.4c4.1-8.2,13.9-13.3,23.1-13.3l26.5,0.1
			C439.3,59,446.2,66.1,447.2,73.1"/>
		<path fill="none" stroke="#FFFFFF" stroke-width="0" stroke-linecap="square" stroke-miterlimit="2" d="M447.2,73.1
			c0.8,7.5-1.7,12.1-4.3,14.8c-3.3,3.4-7.4,5.2-13,5.2l-13.6,0c-7.9,0-13-5.4-13-12.5v-1.5l20,0c1.6,0,2.6-1.3,2.6-2.6
			c0-1.3-0.8-2.8-3-2.8l-11.7,0c-7.1,0-11.8,4.7-11.7,11.3c0.1,6,4.2,13.5,14.8,13.5l37.2,0c0,0,0-39.5,0-39.5l20.8,0l0,39h28.5
			l0-39l20.9,0v39l28.4,0c0,9.3-5.1,17.6-14.2,17.6c0,0-20.2,0-20.2,0c-9.1,0-14.9-7.1-14.9-15.2c0,8.1-6.2,15.2-14.7,15.2
			c0,0-19.2,0-19.2,0c-7.9,0-15.3-6.4-15.4-15l0,0c-1.2,6.6-8.9,14.9-16.8,15c0.1,0-30.3,0-30.4,0c-10,0-19.1-7.7-23.5-17.1
			c-3.5-8.2-2.9-18.9,1.6-26.4c4.1-8.2,13.9-13.3,23.1-13.3l26.5,0.1C439.3,59,446.2,66.1,447.2,73.1z"/>
		<path fill="#134B8E" d="M260.8,74.9c7.6,0,11.9,4.9,11.9,11.6c0,6.5-5.3,11.1-11.7,11.1l-6.8,0V74.9L260.8,74.9z"/>
		<path fill="#FFFFFF" d="M130.1,137.9c0.7,6.3-2.9,10.8-6.2,13c6,2.8,8.3,8.1,8.1,13.9c-0.2,6.6-4.6,16.2-20.6,16.2l-37.6,0l0-56.8
			l36,0C120.8,124.2,128.8,127.6,130.1,137.9"/>
		<path fill="none" stroke="#FFFFFF" stroke-width="0" stroke-linecap="square" stroke-miterlimit="2" d="M130.1,137.9
			c0.7,6.3-2.9,10.8-6.2,13c6,2.8,8.3,8.1,8.1,13.9c-0.2,6.6-4.6,16.2-20.6,16.2l-37.6,0l0-56.8l36,0
			C120.8,124.2,128.8,127.6,130.1,137.9z"/>
		<path fill="#FFFFFF" d="M198.3,177.9l0-53.7H218c6.7,8.7,13.7,17.3,20.7,25.6l0-25.6l21.4,0v56.9h-10.5c-7.1,0-9.5-0.4-12.2-2.7
			c-6.4-5.9-16.7-19.5-16.7-19.5l0,22.2l-48.3,0c-5.9,0-13.6-3.9-16.3-13.2c0,0-6.1,13.2-6,13.2l-19.5,0l22-50.1
			c2.2-5,6.2-6.9,11.6-7l10,0L198.3,177.9z"/>
		<path fill="none" stroke="#FFFFFF" stroke-width="0" stroke-linecap="square" stroke-miterlimit="2" d="M198.3,177.9l0-53.7H218
			c6.7,8.7,13.7,17.3,20.7,25.6l0-25.6l21.4,0v56.9h-10.5c-7.1,0-9.5-0.4-12.2-2.7c-6.4-5.9-16.7-19.5-16.7-19.5l0,22.2l-48.3,0
			c-5.9,0-13.6-3.9-16.3-13.2c0,0-6.1,13.2-6,13.2l-19.5,0l22-50.1c2.2-5,6.2-6.9,11.6-7l10,0L198.3,177.9z"/>
		<path fill="#FFFFFF" d="M288.9,124.2l0,15.8l14.7-15.8h24.9c0,0-23.9,25.9-24,26c0,0,7.9,0,7.9,0s16.1,28.8,23.7,43.4h-23.4
			c0,0-18.3-32.4-18.3-32.5c0,0-5.5,5.8-5.5,5.8v14.2c0,0-21.5,0-21.6,0v-56.9H288.9z"/>
		<path fill="none" stroke="#FFFFFF" stroke-width="0" stroke-linecap="square" stroke-miterlimit="2" d="M288.9,124.2l0,15.8
			l14.7-15.8h24.9c0,0-23.9,25.9-24,26c0,0,7.9,0,7.9,0s16.1,28.8,23.7,43.4h-23.4c0,0-18.3-32.4-18.3-32.5c0,0-5.5,5.8-5.5,5.8
			v14.2c0,0-21.5,0-21.6,0v-56.9H288.9z"/>
		<path fill="#FFFFFF" d="M538.1,124.3c4.8,0.2,6.2,2.1,6.2,6.2l0,45.1c0,4-2.7,5.8-5.5,5.9l-51.3,0c-3.2,0-5.5-1.7-5.5-5.3v-46.5
			c0-4.1,2.3-5.4,5.4-5.4L538.1,124.3z"/>
		<path fill="none" stroke="#FFFFFF" stroke-width="0" stroke-linecap="square" stroke-miterlimit="2" d="M538.1,124.3
			c4.8,0.2,6.2,2.1,6.2,6.2l0,45.1c0,4-2.7,5.8-5.5,5.9l-51.3,0c-3.2,0-5.5-1.7-5.5-5.3v-46.5c0-4.1,2.3-5.4,5.4-5.4L538.1,124.3z"
			/>
		<path fill="#134B8E" d="M505.9,131.8l11.5,0v7.8l-11.1,0v12.6l11.4,0v8.1h-11.4c-6.7,0-12.6-5.4-12.5-14.4
			C493.7,136.8,499.9,131.8,505.9,131.8"/>
		<path fill="none" stroke="#FFFFFF" stroke-width="0.949" stroke-linecap="square" stroke-miterlimit="2" d="M505.9,131.8l11.5,0
			v7.8l-11.1,0v12.6l11.4,0v8.1h-11.4c-6.7,0-12.6-5.4-12.5-14.4C493.7,136.8,499.9,131.8,505.9,131.8z"/>
		<path fill="#134B8E" d="M107.2,138.9c2,0,3.2,0.9,3.2,2.6c0,1.9-1.5,2.4-3,2.4H95.1l0-5H107.2z"/>
		<path fill="#134B8E" d="M521.5,141.9c5.8,0,8.3,1.1,9.9,4.5c1.1,2.3,0.6,6.4-1.6,8.4c-1.4,1.2-3,1.5-3,1.5s2.2,0.1,4,2.5
			c1.7,2.2,2,7.5-0.7,10.1c-2,1.9-4.9,2-8.7,2l-13,0v-8.3l11.7,0l0-12.8l-11.4,0l0-7.8L521.5,141.9z"/>
		<path fill="none" stroke="#FFFFFF" stroke-width="0.949" stroke-linecap="square" stroke-miterlimit="2" d="M521.5,141.9
			c5.8,0,8.3,1.1,9.9,4.5c1.1,2.3,0.6,6.4-1.6,8.4c-1.4,1.2-3,1.5-3,1.5s2.2,0.1,4,2.5c1.7,2.2,2,7.5-0.7,10.1c-2,1.9-4.9,2-8.7,2
			l-13,0v-8.3l11.7,0l0-12.8l-11.4,0l0-7.8L521.5,141.9z"/>
		<polygon fill="#134B8E" points="169.6,162.6 158.5,162.6 164.1,150.5 		"/>
		<path fill="#134B8E" d="M110.8,161.1c-0.1,1.4-1,2.3-2.6,2.2h-13c0,0,0-4.9,0-5c0.1,0,13,0,13,0
			C109.9,158.3,110.8,159.4,110.8,161.1"/>
		<path fill="#134B8E" d="M150.8,98.1c5.9,0,10.8-4.8,10.8-10.8c0-5.9-4.8-10.8-10.8-10.8c-5.9,0-10.8,4.8-10.8,10.8
			C140.1,93.3,144.9,98.1,150.8,98.1"/>
		<path fill="#FFFFFF" d="M359.7,158.7c-6.7,0-13-4.6-13-12.5v-1.5l19.7,0c1.9,0,2.8-1.4,2.8-2.7c0-1.3-0.8-2.7-2.9-2.7l-11.5,0
			c-7.4,0-12.1,4.9-12.1,11.5c0.1,8.1,6.3,13.4,15.3,13.4l36.9,0.1l-0.1-39.9h43.6c10.1,0,17.9,6.8,18,15.5c0,6.9-2,10.8-5.5,13.9
			c-3.4,2.8-8.1,3.4-8.1,3.4s15.1,24.3,15.1,24.3h-23.8l-18.3-28.4l0,28.4l-20.8,0c0-0.3,0-14.9,0-14.9c-1.4,6.6-8.8,14.9-16.9,14.9
			c0.1,0-30.3,0-30.4,0c-10.1,0-19.1-7.8-23.5-17.1c-3.6-8.1-3.2-19,1.3-26.5c4.8-9.6,15.6-13.3,26-13.3l23.6,0
			c7.2,0,14.2,7.3,15.2,14.3c0.9,7.2-1.2,11.8-4.3,14.9c-3.4,3.4-7.7,4.8-13,4.8L359.7,158.7z"/>
		<path fill="none" stroke="#FFFFFF" stroke-width="0" stroke-linecap="square" stroke-miterlimit="2" d="M359.7,158.7
			c-6.7,0-13-4.6-13-12.5v-1.5l19.7,0c1.9,0,2.8-1.4,2.8-2.7c0-1.3-0.8-2.7-2.9-2.7l-11.5,0c-7.4,0-12.1,4.9-12.1,11.5
			c0.1,8.1,6.3,13.4,15.3,13.4l36.9,0.1l-0.1-39.9h43.6c10.1,0,17.9,6.8,18,15.5c0,6.9-2,10.8-5.5,13.9c-3.4,2.8-8.1,3.4-8.1,3.4
			s15.1,24.3,15.1,24.3h-23.8l-18.3-28.4l0,28.4l-20.8,0c0-0.3,0-14.9,0-14.9c-1.4,6.6-8.8,14.9-16.9,14.9c0.1,0-30.3,0-30.4,0
			c-10.1,0-19.1-7.8-23.5-17.1c-3.6-8.1-3.2-19,1.3-26.5c4.8-9.6,15.6-13.3,26-13.3l23.6,0c7.2,0,14.2,7.3,15.2,14.3
			c0.9,7.2-1.2,11.8-4.3,14.9c-3.4,3.4-7.7,4.8-13,4.8L359.7,158.7z"/>
		<path fill="#134B8E" d="M432.6,139.2c2,0,2.9,1.1,2.9,2.4c0,1.2-0.8,2.5-2.9,2.5l-16.7,0l0-5H432.6z"/>
	</g>
</g>
</svg>
