<svg xmlns="http://www.w3.org/2000/svg" viewBox="0 0 1744 1744" fill="none" shape-rendering="auto"><metadata xmlns:rdf="http://www.w3.org/1999/02/22-rdf-syntax-ns#" xmlns:xsi="http://www.w3.org/2001/XMLSchema-instance" xmlns:dc="http://purl.org/dc/elements/1.1/" xmlns:dcterms="http://purl.org/dc/terms/"><rdf:RDF><rdf:Description><dc:title>Notionists</dc:title><dc:creator>Zoish</dc:creator><dc:source xsi:type="dcterms:URI">https://heyzoish.gumroad.com/l/notionists</dc:source><dcterms:license xsi:type="dcterms:URI">https://creativecommons.org/publicdomain/zero/1.0/</dcterms:license><dc:rights>Remix of „Notionists” (https://heyzoish.gumroad.com/l/notionists) by „Zoish”, licensed under „CC0 1.0” (https://creativecommons.org/publicdomain/zero/1.0/)</dc:rights></rdf:Description></rdf:RDF></metadata><mask id="viewboxMask"><rect width="1744" height="1744" rx="872" ry="872" x="0" y="0" fill="#fff" /></mask><g mask="url(#viewboxMask)"><rect fill="#c0aede" width="1744" height="1744" x="0" y="0" /><g transform="translate(531 487)"><path d="M554 727.7c-99.2 297-363.8 388.6-503.7 19.8-19.3-50.7 31-69.5 66.2-91.9 24.1-15.3 36.8-28.5 35.3-42.2-7-64.4-36.9-243.8-36.9-243.8l-3-5.8s.7-1.6-2.2 1.2c-3 3-9.9 34.2-37 34.2-24.5 0-49.2-10.9-61-86.3C7.2 285.6 9.6 214 40 201c12.5-5.3 24-7.2 35.2-.8 11.3 6.4-13-22 112-126C268.4 6.4 396.7-3.5 448.5 8 500.3 19.5 552 44.8 574.9 98.5c27.8 65-25.9 114.3-14 262.5-2.2 53.6.8 171.2-146.6 210.6-28 7.5-19.3 48.4 22.7 58.4 67 21 117 72.3 117 97.9" fill="#fff"/><path fill-rule="evenodd" clip-rule="evenodd" d="m554 266.2.1-1.4c4.1-36.4 8.2-71.7 27.1-103.4 6.5 4.4 5.7 10 3.7 15.2-19.9 51.2-18 104.4-16.2 157.6l.4 14c2.1 66.4-14.5 126.8-58.7 177.5-15.4 17.6-35.8 29.8-56.5 40.3-21.4 11-25.9 20.1-19.2 43.6l.8 2.6c1.4 3.9 2.8 7.9-1 11.8-4.5 4.6-9.5 3.3-14.8 1.8l-.6-.1a406.4 406.4 0 0 1-137-68.3c-6-4.4-10.8-10.3-15.5-16.1l-.3-.4c-2.5-3-3-7.8.5-10.4 3.3-2.5 5.8-.5 8.7 1.8l1 .9a145.5 145.5 0 0 0 76.3 31.7c13.4 1.4 26.6.9 40 .4 7.4-.3 14.8-.6 22.3-.5 10.2 0 18.7-4.7 26.7-9.2l2.8-1.6c27.8-15.5 54.3-32.8 72.2-60.7 16.1-25 25.9-52.2 31.6-80.9 7.2-36.1 6.6-72.7 6-109.8-.3-12-.5-24.2-.5-36.4ZM50.6 190.8c21.9-1.7 34 11.2 44.3 26.3a140.4 140.4 0 0 1 22.4 61.5c.5 3.7 1 7.6-1.2 11.3-4.5.6-4.9-3-5-5.6-.5-20.7-9.7-38.7-18.9-56.1-6.6-12.5-16.2-24.6-31.4-27.6-17.2-3.5-33 12-40.8 32.2-14.5 37.6-12 74.6 1.4 111 5.8 15.9 13.1 32.1 27.8 43.2 14.8 11.3 32.7 9.3 43.6-5.7l2-2.5c2-2.6 4-5.1 5-8 2.1-5.8 5.4-11.2 11.3-10.4 6.8 1 8 8.3 8.7 14a3661 3661 0 0 0 22 156.7l5.9 38.8c2.6 17.1 5.6 41.7 3.6 52.1a28 28 0 0 0-.3 2.2c-.4 2.8-.6 5-4.2 5.5-4.9.8-7-2-7.7-6.4-2.3-17-3-23.6-4-49.6-.9-25.2-5.6-50-10.4-74.9l-5-27c-5.2-30.8-10.3-62-10.8-97l-2 3c-7.6 11.3-13.7 20.5-24.5 24a40.5 40.5 0 0 1-46.1-12.5 127.8 127.8 0 0 1-28.8-55.8c-8.4-34-9.9-67.1.9-100.6 5.2-16.1 23.7-44.7 42.2-42Zm34.6 127.5c4.4 3.2 8.4 6 12-5.4-1.1-42.2-14.7-69.2-35.8-70.3 11.2 14.6 22 28.8 23 48.5a32.3 32.3 0 0 1-10.7-8.8c-2-2.2-4-4.4-6.5-6l-3-2.4c-4.8-3.6-9.7-7.4-17.8-4.5 3.8 5.8 9 10 14.3 14 6 4.7 12 9.3 15.6 16.5-10.6 7.7-15.2 17.7-9.7 29.9 4.8 10.5 11.9 19.2 25.9 19.8-.6-6.3-4.7-10.9-8.8-15.4-5-5.4-9.7-10.6-7.5-18.6 3.2-1.5 6.2.7 9 2.7Z" fill="#000"/></g><g transform="translate(178 1057)"><path d="M1301.3 694.3S1276 480.8 1263 423.6c-25.7-111.8-73.3-201.4-135.3-220.5-29.6-9.2-39.4-34-47-53.2-3-7.8-5.8-14.7-9.3-19.2C1040 90.7 975 50.5 941 37.3 914.5 27 838.5 20.6 813 30.7c-11.5 4.5-16.2 11-17.6 18.5-1.5.5-3 1.1-4.4 2-3.3 1.8-6 5-9.5 9C768 75.7 745 102.1 653.7 98c-72.5-3.2-120.5-13.8-149-58.3-2.3-3.6-5-4.8-8-4.2a223.7 223.7 0 0 0-163 19C316.2 64 219.4 158.4 218.4 163.7c-2 10.6-25.6 28-55.2 47.6C100.9 252.4 73.6 333 49.3 404.4l-6.6 19.2C31.8 455.2 6.1 692 6.1 692l176 2.3h1119.2Z" fill="#000"/><mask id="bodyVariant08-a" style="mask-type:luminance" maskUnits="userSpaceOnUse" x="453" y="259" width="392" height="433"><path d="m467 692-14-432.5h392V692H467Z" fill="#fff"/></mask><g mask="url(#bodyVariant08-a)"><g transform="translate(396 278)" style="mix-blend-mode:difference"><path d="M204.9 175.7s150.1 43.7 172 42.1c9.5-.6 13.6-7 11.8-16.2a28 28 0 0 0-5.5-12c-2.9-4-186-225.6-203.5-184.5a16 16 0 0 0 .5 12.5c4.3 8 10.8 14.4 16.3 21.3 21.4 24.8 41.6 50.6 63.1 75.3 12.7 14.9 30.5 34.2 37.9 47.7-5.4-.5-15.1-3.5-21.1-4.9-13.5-3.4-27-7-40.5-10.3a313.1 313.1 0 0 0-60.2-9.7c-9.2-.1-20.4-.4-27 7.1-5.2 6.5-6 15.8-2.8 23.3 4 8.3 10.7 15 16.6 22a855 855 0 0 0 29.6 30.9c18.8 18.5 37.3 37.2 56.2 55.5 22 21 43.5 42.3 65 63.7 15.9 15.5 32 30.7 47.9 46.2 4.8 4.7 9.6 9.4 14.8 13.7l5.3 4.2c1.2.8 2.4 1.7 3.9 1.8 2.5-.4 3.3-3.5 3.6-5.7.9-5.8-2.8-10.7-5.6-15.3C358.6 345.7 205 175.7 205 175.7Z" fill="#fff"/></g></g><path d="M1295 694c-6.2-21.3-11.5-73.3-14.9-102-2.4-20.7-19.6-166.5-38.5-217.4-11.6-31.1-22.4-63-39.5-92.1-11.7-20-29.3-34.3-46-48.9a513 513 0 0 0-67-48.2c-30.9-19.2-63.4-23-97.6-11.7a32 32 0 0 0-21.9 24.3c-13.4 53.3-9.1 107.6-9.8 161.6-.8 69.8 3.1 139.5 5.2 209.2 1.8 57.2 0 66.7-.6 125.2h-14.5c-.9-32.2-.4-15.3-.6-47.5-.2-47.6-.8-95.1-1.6-142.7-.6-37.8-.3-75.7-2.8-113.5-2.6-39.6-2.7-79.1.7-118.6 2.5-28.2.1-57 11.3-84.3 9.4-23 28.3-31.8 49.9-33.5 22.4-1.7 45.7-4.8 69.8 9.3-4.8-16.6-15-24.7-22.6-34-28-34.2-65.5-55.5-103.6-76.8-39.3-22-80.7-19-122.6-17.4-6.5.3-12 3.8-17.8 6.7-7.5 4-15.3 7.3-26.6 4.8 9.5-13 22.1-17.3 35.1-21.1 37.1-10.8 73-5.2 95.7-1.8C943 28 1042.7 76 1089.7 151.5c22.3 35.9 85.8 36.4 143.6 157.6a528 528 0 0 1 34.7 100.7c10.9 44 39.5 252.6 39.5 284.2H1295ZM15.3 694c2-6.9 2.7-9.9 3.6-15.7 4.6-28.4 5.5-57.6 8.9-86.3 2.4-20.7 3.3-41.4 6-62 7.2-52.7 15.6-105 32.5-155.4 10.7-31.7 22.4-63 39.5-92.1 11.7-20 29.3-34.3 46-48.9 20.7-18 43.5-33.7 67-48.2 30.9-19.2 63.4-23 97.6-11.7a32 32 0 0 1 21.9 24.3c13.4 53.3 9.1 107.6 9.8 161.6.8 69.8-3.1 139.5-5.2 209.2-1.8 57.2.5 125 .5 125l14.6.2c.9-32.2.4-15.3.6-47.5.2-47.6.8-95.1 1.6-142.7.6-37.8.3-75.7 2.8-113.5 2.6-39.6 2.7-79.1-.7-118.6-2.5-28.2-.1-57-11.3-84.3-9.4-23-28.3-31.8-50-33.5-22.3-1.7-45.6-4.8-69.7 9.3 4.8-16.6 15-24.7 22.6-34 28-34.2 65.5-55.5 103.5-76.8 39.4-22 80.8-19 122.7-17.4 6.5.3 12 3.8 17.8 6.7 7.5 4 2.3 11.5 6.4.7 5.8-15-2-13.2-15-17-37-10.8-74-4-111 .5-7.4 1-14.8 4.4-21.5 8-51.4 27.8-116 77.2-138.6 117.6-12 21.6-30.7 32.8-47.5 47.7C111 252.3 95.3 263.8 74.6 309a573.6 573.6 0 0 0-34.7 100.7c-11 44-19.1 88.6-22.8 134.2-2.7 32.4-7.4 64.8-10.3 97.4-2 22.8-3.5 39.7-3.5 52.6h12Z" fill="#fff"/><path d="M1131.8 694c2-23.7-8-84.7-12.5-115.7-3.3-22.6-3-46-11.4-67.7-2.1-5.4-1.5-12.4 5.3-13.5 6.4-1 9.2 3.5 10.7 10.8 7.8 38.3 11.3 77.2 16 116 3.5 30 7.8 60 8.5 70l-16.6.1ZM193.3 694c1.4-23.6 8-84.7 12.6-115.7 3.3-22.6 3-46 11.4-67.7 2.1-5.4 1.5-12.4-5.3-13.5-6.4-1-9.3 3.5-10.7 10.8-7.8 38.3-11.3 77.2-16 116-3.6 30-5.7 70.1-5.7 70.1h13.7Z" fill="#fff"/><path d="M467.4 694.3S452.7 266.8 452.7 179c0-72.8 36.6-163 52-139.2 28.5 43.8 77.2 58.4 149.7 61.5 115 5 120.9-41.3 136.6-50 31.4-17.6 52.7 66 52.7 141.4V694" stroke="#fff" stroke-width="15"/></g><g transform="translate(266 207)"><path d="M393.2 749.9c-56.5 18.4-150.5-40-180.6-70-46-46-58.2-136.2-43.3-204.5 14.8-68.3 111.4-415.7 409.3-440C757.2 20.6 847.6 134 888 193.2c63 91.8 99.7 223.2 63 317.3-19.2 49.3-89.7 135.8-106.6 126.5-16.9-9.3-23-118.2-15-184.1 14-116.2-176.8-196.2-176.8-196.2S594.2 307 505.2 396c-89 89-126.6 162.8-129.7 220.9-3.4 63 17.7 132.9 17.7 132.9Z" fill="#fff"/><path fill-rule="evenodd" clip-rule="evenodd" d="M382.9 645.7c-1-17.7-2-35.6 1.8-54a157.3 157.3 0 0 1 24.8-71.3c27-45.1 62-84.3 98.8-121.4 27.4-27.7 54.3-51.6 81.6-75.8 19.4-17.2 38.9-34.6 59-53.5 8.3-8 96.4 41 128.6 73.3 20.4 20.5 40.4 44.4 45.3 66.5 4.6 21.2 2.7 42.8.8 64.4-.6 7.3-1.3 14.6-1.6 21.9-.4 6.8-1.5 13.6-2.6 20.4-2 12.4-4 24.8-1.6 37.6l4.5 22.8c4.1 20.2 8.3 40.4 9.2 61 .4 8.5 5.9 10.2 13.7 7.4 18.6-6.8 32-20.2 45.5-33.8 25-25 41.4-55.7 57.6-86.4 13.8-26.2 24-52.9 23.4-83.6-.2-7.7-.2-15.5-.2-23.3 0-9.1-.1-18.3-.4-27.4-.9-32.7-10.9-63.7-21.2-94-12-35.7-31.5-68.1-52.9-99.2-32.4-47.1-70-89-119-119.9-46.6-29.4-98.5-42.6-152.8-46.9-38.2-3-75.2 4.2-112 13.6-29 7.4-56 20-82.2 33.1a309.8 309.8 0 0 0-59.9 40.4c-45.5 38-87.4 78.5-119 129.3A895 895 0 0 0 192.2 363c-12.9 29.7-20 61.6-27 93.5l-2 9a276.3 276.3 0 0 0 22.3 186.8c22 44.9 60.3 74.3 107.1 91 27.4 9.7 55.3 19 85.3 19 14.7 0 17.2-.3 17-15.5-.1-12.4-2.9-24.5-5.6-36.6-3-12.7-5.8-25.4-5.7-38.7.1-8.6-.4-17.3-.8-26Zm453-190.6c.8-21.6-1-43.1-9.2-63.5-17.8-46.5-59-76.6-91-95.7a345.4 345.4 0 0 0-36.1-18c-10.4-4.7-19.5-8.8-26.8-13.7-10.2-6.8-11-8.7-1.5-17.4 1.3-1 2.5-2.3 3.5-3.7 10.7-16.9 32.1-32 49.6-39.5a72.3 72.3 0 0 0 39.9-40.7c1-2.5 1.7-4.9-2-8.9-13.8 21-30.4 38.8-57.2 48.6l10-17c10.3-16.8 20.2-33 25.7-53-10.3 2.7-13.3 9.9-15.8 16.1l-1.7 4a466.2 466.2 0 0 1-63.7 91.8c-18.1 20.7-37.2 36.4-56.5 52.3-14.4 11.8-29 23.7-43.4 38-11 10.8-22.2 21.1-33.5 31.4-20.5 18.8-41 37.6-59 58.7-25 29.3-49.2 59.4-71.4 91-15.2 21.6-19.7 48-23.2 74.5-6 46 1.7 90.7 9.7 135.5 3.5 19.3.2 23.7-19.2 24-23.7.3-45-8.2-65.6-18.4A265.4 265.4 0 0 1 223 679c-28.4-29.2-43.3-64.1-50.8-103.3-6.4-33.9-1.1-67 4.1-100l2.2-14c5-33 17-63.7 28.8-94.4 3.7-9.6 7.4-19.2 10.9-29 18.8-52 49.6-96.4 84.7-138 44-52.5 95.2-96.6 158.3-125.6 55-25.3 112.2-39.9 172.8-34.3 24 2.2 47.8 7.4 70.6 15.3a336 336 0 0 1 87.5 45.7 399 399 0 0 1 84.5 86c26.4 35 46.7 73.5 61.9 114.4a354 354 0 0 1 21.3 94c1.5 17 .7 33.8-.1 50.6l-.7 15.5c-.6 19-8.5 35.8-16.3 52.5l-2.8 6.3a310.6 310.6 0 0 1-80.2 104.8c-9.4 8.3-16.8 6.5-19.3-5.7a425.8 425.8 0 0 1-5.1-33.7l-2.4-18c-3.8-25.5-1.6-50.9.6-76.2 1-12.3 2.1-24.5 2.5-36.8Z" fill="#000"/><path d="M304 574.3c6.9-35.3 14.7-69.1 33.3-99.3a219.2 219.2 0 0 1 40.2-50.8c3.4-3 6.5-8.1 15-6.2-67 75.4-103.8 157.6-62.4 258.2-18.4-8.2-29.3-51-26-101.9ZM439.2 424.4l-40.5 54.8c2-35.7 141.3-200.3 176.8-203.6a875 875 0 0 0-136.3 148.8ZM919 480.2c-3.8 10.5-2.5 22-10.4 30.4-4.7-12 .6-22.7 4.5-33.1 1.4-4 4.7-1.8 6 2.7ZM935.2 441c5-5.4 7.4-3.1 7.5 2 .2 8.3-2 16-11 25 1.3-11 2.1-18.6 3.5-27ZM915.3 444.8c-1 4.9-1 9.5-7.4 10.6-4.5-9.9.8-17.1 5.4-25.5 6.5 4.6 3.2 9.4 2 14.9Z" fill="#000"/></g><g transform="translate(791 871)"><g fill-rule="evenodd" clip-rule="evenodd"><path d="M104.5 69.3c5.8 1.4 12 3 10 11.7-4 1.5-6.9-.3-9.8-2.1-3.5-2.1-7-4.2-12.2-1.2 1.5-8.5 5.9-10 11.2-8.6.3 0 .5 0 .8.2Zm93.3 5.8c3.4 3.2 1.2 7-1.4 10-1.3.5-2.5 1.1-3.6 1.7-3.5 1.9-6.4 3.4-10 1.6-3-5.4-2.7-10.4 3-13.7 3.8-2 8.6-2.6 12 .4Zm-24.2 13.2c1.2-7.3-1.2-11.4-9.3-10.4-4.9.7-9.6 1.9-8.8 8.2.7 6.6 5 6.2 9.1 5.8l3.6-.2c1.5.1 3-1.1 5.4-3.4ZM126.3 106l1.5-.3c1.5-.2 3-.5 3.2-3-16.9-.8-30.7-8.7-44.4-20.5a40.8 40.8 0 0 0 39.7 23.8Zm.2-20c2.4 6.8 7.8 6.8 13.3 5 3.8-1.4 3.5-5.4 3.3-8.7-.4-5-3.8-6-8-6.3-6.1-.5-8.2 2.8-8.6 10Z" fill="#fff"/><path d="M186.9 60.6a76.9 76.9 0 0 1-41 4.6c-13.1-.8-24.3-4.5-35.4-9C99.3 52 83.6 58.4 76 69.5c-6.7 10-6 20 3.5 30 10.8 11.5 24.3 20.7 40 19.6 9-.7 18-1.6 27-2.6 20.7-2.1 41.3-4.3 62.4-3 17.5 1 26.1-15.5 21.2-32.7-5.7-19.4-22.6-27.3-43.3-20.1Zm-22.6 17.3c8-1 10.5 3 9.3 10.4-2.4 2.3-4 3.5-5.4 3.4-1 0-2.3 0-3.6.2-4 .4-8.4.8-9.1-5.8-.8-6.3 4-7.5 8.8-8.2Zm-38 28 1.5-.3c1.5-.2 3-.5 3.2-3-16.9-.8-30.7-8.7-44.4-20.5a40.8 40.8 0 0 0 39.7 23.8Zm71.5-30.8c3.4 3.2 1.2 7-1.4 10-1.3.5-2.5 1.1-3.6 1.7-3.5 1.9-6.4 3.4-10 1.6-3-5.4-2.7-10.4 3-13.7 3.8-2 8.6-2.6 12 .4Zm-71.3 10.7c2.4 7 7.8 7 13.3 5 3.8-1.3 3.5-5.3 3.3-8.6-.4-5-3.8-6-8-6.3-6.1-.5-8.2 2.8-8.6 10Zm-22-16.5c5.8 1.4 12 3 10 11.7-4 1.5-6.9-.3-9.8-2.1-3.5-2.1-7-4.2-12.2-1.2 1.5-8.5 5.9-10 11.2-8.6.3 0 .5 0 .8.2Z" fill="#000"/></g></g><g transform="translate(653 805)"></g><g transform="translate(901 668)"><path d="M71.5 185c5-15.6-6-26.3-10.4-38.5-8.6-23.7-16.2-47.4-15-73 .2-4.6-.7-10.7 6-10.6 5.1.2 7.9 5.2 8 10 1.6 35.5 14.5 67.7 29 99.3 2.7 6 2.1 11.1-1.1 16.9-8.5 15.1-22.3 20-38.2 20.5-8.7.3-15-4.5-18.2-15.2 14-1.8 29.4 4.8 39.9-9.4Z" fill="#000"/></g><g transform="translate(610 680)"><path d="M419.6 111c-4.2-9.5-9.9-15.2-19.8-15.7-6-.3-7-5.1-8.9-9.8 2-1.5 3.5-3.7 5.3-3.8 21.1-1.7 42.4-1.8 63.5-.1 6 .4 9.3 8 3.2 10.4-10 4-12.5 13.2-18.5 19.8-8.2 9-15.2 9.1-24.8-.8ZM228.6 81.4c12.2.7 23.1 1 34 2 3.6.3 8 1.8 8 6.7 0 5.6-4.6 5.2-8.3 5.1-6.3 0-9.7 2.7-12.5 8.6-3.4 7.4-6.9 15.3-18 14.8-10.5-.5-15.1-7.2-18.1-15.2-2.2-5.7-5-8.4-11-8.2-3.4.1-7.1-.2-7.5-4.9-.4-5 3-6 7-7.2a67.9 67.9 0 0 1 26.4-1.7Z" fill="#000"/></g><g transform="translate(610 680)"></g><g transform="translate(774 657)"><path d="M81.4 35C60 29.6 52 33.2 40 52.6c-2.4 4-3.4 11.4-10.6 7-5.6-3.4-5.3-8.8-2.6-14.6a51.4 51.4 0 0 1 38-30.7 33.1 33.1 0 0 1 37.5 26.4c.9 5.3.1 10-4.8 13.6-11.2-1.3-8-14.2-16-19.1ZM246.2 32.8c14-6.2 27-12.4 41.2-1.9 5.1 3.7 9 8.8 11.3 14.7 2 5 2.3 10.7-2.7 13.8-5.7 3.5-8.1-2.1-11-5.6-10.4-12.8-18.4-13.7-32.4-4.6-4 2.6-6.8 8-13.5 7-5.7-9.6-.1-16.3 7-23.4Z" fill="#000"/></g><g transform="translate(0 559)"></g></g></svg>