<svg xmlns="http://www.w3.org/2000/svg" viewBox="0 0 1744 1744" fill="none" shape-rendering="auto"><metadata xmlns:rdf="http://www.w3.org/1999/02/22-rdf-syntax-ns#" xmlns:xsi="http://www.w3.org/2001/XMLSchema-instance" xmlns:dc="http://purl.org/dc/elements/1.1/" xmlns:dcterms="http://purl.org/dc/terms/"><rdf:RDF><rdf:Description><dc:title>Notionists</dc:title><dc:creator>Zoish</dc:creator><dc:source xsi:type="dcterms:URI">https://heyzoish.gumroad.com/l/notionists</dc:source><dcterms:license xsi:type="dcterms:URI">https://creativecommons.org/publicdomain/zero/1.0/</dcterms:license><dc:rights>Remix of „Notionists” (https://heyzoish.gumroad.com/l/notionists) by „Zoish”, licensed under „CC0 1.0” (https://creativecommons.org/publicdomain/zero/1.0/)</dc:rights></rdf:Description></rdf:RDF></metadata><mask id="viewboxMask"><rect width="1744" height="1744" rx="872" ry="872" x="0" y="0" fill="#fff" /></mask><g mask="url(#viewboxMask)"><rect fill="#fef3c7" width="1744" height="1744" x="0" y="0" /><g transform="translate(531 487)"><path d="M554 727.7c-99.2 297-363.8 388.6-503.7 19.8-19.3-50.7 31-69.5 66.2-91.9 24.1-15.3 36.8-28.5 35.3-42.2-7-64.4-36.9-243.8-36.9-243.8l-3-5.8s.7-1.6-2.2 1.2c-3 3-9.9 34.2-37 34.2-24.5 0-49.2-10.9-61-86.3C7.2 285.6 9.6 214 40 201c12.5-5.3 24-7.2 35.2-.8 11.3 6.4-13-22 112-126C268.4 6.4 396.7-3.5 448.5 8 500.3 19.5 552 44.8 574.9 98.5c27.8 65-25.9 114.3-14 262.5-2.2 53.6.8 171.2-146.6 210.6-28 7.5-19.3 48.4 22.7 58.4 67 21 117 72.3 117 97.9" fill="#fff"/><path fill-rule="evenodd" clip-rule="evenodd" d="m554 266.2.1-1.4c4.1-36.4 8.2-71.7 27.1-103.4 6.5 4.4 5.7 10 3.7 15.2-19.9 51.2-18 104.4-16.2 157.6l.4 14c2.1 66.4-14.5 126.8-58.7 177.5-15.4 17.6-35.8 29.8-56.5 40.3-21.4 11-25.9 20.1-19.2 43.6l.8 2.6c1.4 3.9 2.8 7.9-1 11.8-4.5 4.6-9.5 3.3-14.8 1.8l-.6-.1a406.4 406.4 0 0 1-137-68.3c-6-4.4-10.8-10.3-15.5-16.1l-.3-.4c-2.5-3-3-7.8.5-10.4 3.3-2.5 5.8-.5 8.7 1.8l1 .9a145.5 145.5 0 0 0 76.3 31.7c13.4 1.4 26.6.9 40 .4 7.4-.3 14.8-.6 22.3-.5 10.2 0 18.7-4.7 26.7-9.2l2.8-1.6c27.8-15.5 54.3-32.8 72.2-60.7 16.1-25 25.9-52.2 31.6-80.9 7.2-36.1 6.6-72.7 6-109.8-.3-12-.5-24.2-.5-36.4ZM50.6 190.8c21.9-1.7 34 11.2 44.3 26.3a140.4 140.4 0 0 1 22.4 61.5c.5 3.7 1 7.6-1.2 11.3-4.5.6-4.9-3-5-5.6-.5-20.7-9.7-38.7-18.9-56.1-6.6-12.5-16.2-24.6-31.4-27.6-17.2-3.5-33 12-40.8 32.2-14.5 37.6-12 74.6 1.4 111 5.8 15.9 13.1 32.1 27.8 43.2 14.8 11.3 32.7 9.3 43.6-5.7l2-2.5c2-2.6 4-5.1 5-8 2.1-5.8 5.4-11.2 11.3-10.4 6.8 1 8 8.3 8.7 14a3661 3661 0 0 0 22 156.7l5.9 38.8c2.6 17.1 5.6 41.7 3.6 52.1a28 28 0 0 0-.3 2.2c-.4 2.8-.6 5-4.2 5.5-4.9.8-7-2-7.7-6.4-2.3-17-3-23.6-4-49.6-.9-25.2-5.6-50-10.4-74.9l-5-27c-5.2-30.8-10.3-62-10.8-97l-2 3c-7.6 11.3-13.7 20.5-24.5 24a40.5 40.5 0 0 1-46.1-12.5 127.8 127.8 0 0 1-28.8-55.8c-8.4-34-9.9-67.1.9-100.6 5.2-16.1 23.7-44.7 42.2-42Zm34.6 127.5c4.4 3.2 8.4 6 12-5.4-1.1-42.2-14.7-69.2-35.8-70.3 11.2 14.6 22 28.8 23 48.5a32.3 32.3 0 0 1-10.7-8.8c-2-2.2-4-4.4-6.5-6l-3-2.4c-4.8-3.6-9.7-7.4-17.8-4.5 3.8 5.8 9 10 14.3 14 6 4.7 12 9.3 15.6 16.5-10.6 7.7-15.2 17.7-9.7 29.9 4.8 10.5 11.9 19.2 25.9 19.8-.6-6.3-4.7-10.9-8.8-15.4-5-5.4-9.7-10.6-7.5-18.6 3.2-1.5 6.2.7 9 2.7Z" fill="#000"/></g><g transform="translate(178 1057)"><path d="M1315.7 690.1 7 691s73-276.9 92.4-308.7c19.4-31.7 97.5-138.7 96.7-156.9-1-18.1 1.4-82.7 14.6-108.2C224 91.6 266 56.6 282.4 54c16.4-2.6 71.6-5.1 106.2-13.7C423 32 455 21.4 490 21.4c5.7 0 .2 12.3.2 12.3S492 154.6 655 162.2C776.6 167.8 816.8 46 816.8 46s-26.7-23.5-18.6-24.2c95.6-8 145.8 13 174.8 18.6 26.7 5.1 49.2 5.1 76 23.9 30.6 21.5 46.5 70.2 80.8 144.8 39.4 85.5 194.2 345 185.9 481.6" fill="#000"/><g fill-rule="evenodd" clip-rule="evenodd" fill="#fff"><path d="M1003.7 694c-.7-16.8-1-33.6-1.5-50.4-.8-36.8-1.6-73.5-6.4-110.3a2971 2971 0 0 0-15-100.8c-9-55-21.3-109.5-33.6-164A302 302 0 0 0 928 214c-5.7-13-10.4-26.2-15.2-39.4-5.5-15.1-11-30.3-17.8-45-1.2-2.5-2.7-4.9-4.2-7.3-3-4.5-6-9.2-7.5-16.2-47.5 92.4-120.5 140.3-223.3 140.7-101.2.5-176-45.6-230.6-128.8a57.7 57.7 0 0 0-16 25.7l-1.4 3.3c-18.6 45.4-36 91-41.5 140.6-3.1 28.6-7.6 57.3-12 85.9l-1.8 11.3c-7 44.7-13 89.6-16.3 134.8A27816 27816 0 0 1 327 693c-4.7 1-9 1-14.5 1 3.5-24.4 4.4-49.3 5.2-74 1.6-49.1 7.3-97.8 13-146.5a6382 6382 0 0 0 4.6-40.2c3-27.7 7-55.3 11-83 4-27.1 8-54.3 11-81.7 5-43.5 22-84.2 40-124.2l.8-1.9c10.5-23.2 20.9-46.2 37.6-65.8C448.5 61.5 463 48 480.4 38c14-8 18.5-6.4 23.1 8.9 9.6 31 26.3 57.8 53.3 76 42.8 28.8 89.1 41.8 141.4 26.6 36.4-10.5 66.6-28.8 88.3-59.5 8.4-12 16-24.7 18.5-39.6l-5.6-2.1c-4.3-1.6-8.5-3.1-12.6-5-3-1.2-6.7-2.9-5.2-7.3 1.3-3.3 4.2-5.8 8-5.3 33 4.5 64.4 11.7 86.3 40.7a341.9 341.9 0 0 1 47.4 88.3l7.5 20A1090 1090 0 0 1 965.2 281c3.6 13.6 6.4 27.4 9.1 41.3l3.6 17.6 5.2 23.5c4 18 8 36 10.9 54 2 12.5 4 25 6.2 37.5 6.1 35.4 12.2 70.9 13.8 107 .8 17.8 2.1 35.5 3.4 53.3 1.1 15 2.2 30 3 44.9.5 8.1-.4 16.3-1.2 24.8l-.8 8.4c-4.9.7-9.8 1-14.7.8ZM818.6 60.5c-8 18.2-15.8 36.5-29.3 51.7-34.3 38.7-78.8 56.4-129.4 57.9-34.1 1-67.6-6-97-24.7-28.6-18.2-53-40.3-65-73.3l-1.3-3.6c-2-5.8-4-11.8-8.6-15.8-13.2 3-16.7 11.1-14.6 22.7.4 1.8.6 3.8.9 5.7.5 4 1 7.9 2.4 11.5 12.5 35 37 60.8 68.3 79.6a204.4 204.4 0 0 0 80.8 28.2c60.4 7.4 116.6-.5 166.4-37.4 30.3-22.4 48.9-52 53.4-89.5 1.7-14.8-7.2-21.7-24.7-18.4l-2.3 5.4ZM457.3 76c20 81 77 120 153.7 137 39 9.8 76 8.1 113.2-1.4 41.3-10.6 77.6-29 104.8-62.4 16.6-20.5 28.9-43.2 29.3-70.8 15 7.8 16.5 13 6.5 31.6a227.7 227.7 0 0 1-96.7 96.8c-46.4 23.8-96.3 30-148.6 22.3-54.1-8-98.7-33.3-137.7-69.6-14-13-24.7-29-35.2-44.9l-6.8-10.1c-2.7-4-1-7.2 1.7-10.3L452.2 82l5-5.8Z"/><path d="M215.1 694c4.5-15.3 6.2-31 8-46.9.8-7.9 1.6-15.8 2.8-23.7l2.7-17.9a976 976 0 0 1 12.5-71.5l4.8-20.4c3.2-13.1 6.4-26.3 8.8-39.7 4-22.8 10.7-45 20.3-66a246 246 0 0 0 22.3-101c.3-17.5 2.5-34.7 4.7-52 1.6-12.8 3.3-25.6 4.1-38.5 1.6-24.4.4-48.5-1-74.8-3.9 3-7.5 6-11 8.9-7.6 6-14.8 11.9-22.1 17.4-42.9 32-76.3 72.4-105 116.8a604.3 604.3 0 0 0-29.8 54c-3.7 7.5-7.5 14.9-11.4 22.2a819.1 819.1 0 0 0-40.2 93.2l-6.5 17c-17.8 46.4-35.8 93.2-42.8 142.8-2 14.2-6 27.9-9.9 41.7-3.5 12.2-7 24.5-9.3 37.4-5.5 1-10.8 1-17.1 1l2.8-9.7c8.4-29.2 17-58.5 21.3-89 2.2-15.4 6.7-30.6 11.1-45.6l3.1-10.4a539.5 539.5 0 0 1 16-45c5-13 10-25.9 14-39.1 5-15.7 11.6-30.9 18.2-46l7.2-16.8a996.4 996.4 0 0 1 59-115l.4-.6c7.4-12.7 15-25.8 26-36.3 8.7-8.2 9.2-18.8 9.7-29.3a102.8 102.8 0 0 1 2.3-20c5-31.3 10.2-62.8 26.3-90.7 16.7-29.1 44.5-45.3 77-53C318 41.7 342 38 366.3 36.6c10-.7 19.7-3.8 29.6-7 5.2-1.6 10.5-3.3 15.8-4.6 5-1.2 10-2.6 15-4 19.2-5 38.3-10.1 58.5-9.2h1c4.1.1 8.3.3 9 5.4.6 5-3 5.7-6.6 6.4l-2 .4-42 9.8c-26.4 6.2-52.8 12.5-79.4 18.2-11.5 2.4-23.5 3.2-35.4 4-3 .2-6 .3-8.9.6a49 49 0 0 0-23.7 6.2c25.8 16 41 37.4 40.5 68-.2 18 .5 36.2 1.3 54.3 1 23.8 2 47.6.6 71.5-1.7 31-5.3 62-9.9 92.8-2.7 17.9-4.8 36-6.8 54-2 17-4 34-6.4 50.9-2.5 16.8-4.2 33.8-5.8 50.7-1.6 15.6-3 31.3-5.3 46.9-2.5 18.3-4.4 36.6-6.2 55-1.6 16-3.2 31.8-5.3 47.6-.5 4-.8 8.1-1 12.2-.5 8.6-1 17.3-4.1 26.2-5.6 1-11.3 1-17 .1 8.7-33.2 12.7-66.8 16.7-100l.5-3.8c2-16.3 3.4-32.6 4.8-49 2.4-26.7 4.7-53.4 9.4-79.9 1.8-10.6 2.7-21.4 3.5-32.2 1-14 2.2-27.9 5.5-41.6 8.3-34.4 11-69.8 13-104.9 2.8-51.6 3.5-103.6.3-155.3-1-16.4-4.6-33-19.5-46.4 1.5 4.9 3.3 9.6 5 14.1 3.7 9.7 7.2 18.8 8 28.2 2.5 27.1 2.7 54.5 2.2 81.8-.5 31.9-4 63.5-7.6 95.1l-3.5 32.9c-3.6 35.8-8.8 71.4-13.9 107-2.3 15.9-4.6 31.8-6.7 47.6-2 14.4-3.5 28.8-5 43.2-1.8 17.3-3.6 34.7-6.2 51.9-1.6 11-2.6 21.9-3.6 32.9-1.6 18.3-3.3 36.6-7.9 54.5l-1 3.7c-1.9 6.7-4 13.9-.5 21-5.6.2-11.2-.1-16.7-1 .7-7.7 2-15 3.1-22.4 1.1-6.5 2.2-13 2.9-19.4 1.4-13.5 3-27 4.5-40.4l5-44.7c3-28.7 6.8-57.2 10.7-85.8l4.9-36.5c-1.9 8-4.3 15.9-6.7 23.8a249 249 0 0 0-8.8 34.2c-2.7 16.5-6.1 33-9.6 49.3-4.5 21.3-9 42.7-11.7 64.4-.9 7.5-2 15-3 22.4-2.8 18.6-5.6 37.2-5.4 56.2h-19.3Zm60.3-548.3a93.6 93.6 0 0 1 20.5-16.8c6.7-3.8 8.5-9.9 6.1-16.2-1-3-1.6-6.4-2-9.7-1.1-7.8-2.3-15.6-11.6-19.6-5-2-9.9-.2-13.3 2.3a70.5 70.5 0 0 0-17.5 16.4c-17.2 25.7-26.6 54.6-35.6 87.3 11-10.8 22.1-19.3 33.3-27.8 6.7-5.2 13.4-10.3 20-15.9Zm-37.6-39.6c-9.9 23.3-19.7 46.6-22 72.1-.3 13-5.7 22.1-11.5 31l3.8-17.8c6.8-33 13.6-66.1 33.8-95l-4.1 9.7ZM1277.2 550.3c15.7 46.5 24 95 31.4 143.7 5.4 0 9.8 0 14.4-1.1a868.9 868.9 0 0 0-21.2-112.8l-.1-.5c-4.1-17.4-9.8-34.3-15.5-51.3l-5-14.8a1478.4 1478.4 0 0 0-43.2-119.3c-8.7-20.5-19.4-39.9-30.2-59.3-4.6-8.4-8.8-17-13.1-25.4-9.3-18.6-18.7-37.2-31.5-54l-4-5.1c-5.8-7.3-11.7-14.7-14.5-23a2217 2217 0 0 0-36.7-101.6 153.9 153.9 0 0 0-32.5-53.3c-20.2-20.8-47.4-28.3-74.3-34.7-22.7-5.3-45.6-9.9-68.6-14.4l-39.9-8c-33.8-7-68.5-9-102.9-6-5.4.5-9.8 1.7-11.8 10.5 14.4 1.6 28.8 2 43.2 2.4 24 .6 48 1.3 71.6 7.7 25 6.8 50.5 12.2 76.7 17.7l37.5 8c-9 9.7-9.3 19.2-9.6 28.7l-.2 4.5c-.7 13.9 1.4 27.4 3.5 41 1.5 9.2 3 18.5 3.5 27.9a1224.2 1224.2 0 0 0 18 139.8c3.4 21 5.9 42.2 8.4 63.4 2.2 18.8 4.4 37.6 7.3 56.3a954 954 0 0 1 8 92.7c1.2 21 2.4 42.1 4.5 63.1 2 20.8 3.6 41.7 5 62.7 1.5 19.4 2.9 38.8 4.7 58.2h11.7c-.6-48.6-4.2-97-7.8-145.5-1.9-24.9-3.7-49.7-5.2-74.6a756.8 756.8 0 0 0-7-61.9c-1.5-10.6-3-21.2-4.2-31.8-3.8-31.4-8.7-62.6-13.6-93.7-4.3-26.9-8.5-53.7-12-80.7-1.7-13-3.8-26-6-38.9a539 539 0 0 1-9.1-81 31.2 31.2 0 0 1 12.4-26.7c-14.5 29.7-8.2 58.4-1.9 87 1.7 7.6 3.3 15 4.6 22.5 1.1 6.6 2.5 13.2 3.9 19.8 2.7 13.2 5.5 26.4 6.2 39.8.6 11 2.7 21.7 4.8 32.3 1.5 7.4 3 14.9 3.9 22.4 2.4 19.6 5.6 39 8.7 58.4 5 30.3 10 60.6 12 91.3 2 26.2 7 52.3 12 78.2l.7 3.9c2.4 12.6 3 25.5 3.4 38v2a951 951 0 0 0 4.2 54.7c2.2 23.7 4.5 47.4 4.4 71.2l-.2 4.4c-.2 2.4-.3 5-.2 7.9 3.8.8 7.5 1 11.3 1 2.7-44.8-.4-89.4-4.4-136.4 14 39.4 20.8 78.4 27.8 118l3 17.3c5.4 1 10.9 1 16.3.2a76.5 76.5 0 0 1-5.2-26.4c-.4-5.6-.8-11-2-16.4l-3.2-14.4c-7.8-34.7-15.6-69.4-29.8-102.4l-3-6.8a73 73 0 0 1-8.3-25c-1-14.8-4-29.3-7-43.7l-2.4-12.2c-3.5-18.3-5.6-36.8-7.7-55.3-2.2-19-4.3-38-8-56.7-3.7-18.6-6.9-37.3-10-56-5-29.2-10-58.4-16.8-87.3l-2-8.3a201.9 201.9 0 0 1-6.7-36.5l4.4 1.5c2.4.8 4.2 1.4 5.6 2.5l1 .8c31 23.8 62 47.7 86.3 78.6a483 483 0 0 1 55.3 86.3c5.9 12 12 23.7 18 35.5a943 943 0 0 1 36.7 77c11.6 28.7 21.1 58 30.6 87.2l11.6 35.2ZM1036.1 132c-6.1-3.4-10.3-8.1-11.4-15.2a64.1 64.1 0 0 1-2.8-33c2.2-15.1 12.6-19.4 26.2-13 19.7 9.3 28.4 27.3 36.8 44.8l2.6 5.5c8.2 16.6 14.9 34 22 52.6l10 25.7-11.4-10.7a448.2 448.2 0 0 0-54.8-46.2c-5.6-3.7-11.4-7.1-17.2-10.5Z"/></g><path d="M428.7 11.3c45.2-21.2 59.5-10 59.5-10s-1.3 12.1 7.9 43c19.2 65 123.7 66 159 61.8 37.1-4.5 125.8-30.2 131-51.7 10-42-16.9-45.2-.8-46.5 16.1-1.4 85.1-.8 133 74.3 2.4 3.8 49.2 152.1-2.5 152.1-27.2 0-68.7-80-96.5-54.7a306 306 0 0 1-191 79.8c-52.3 2.6-140.8-43.6-140.8-43.6l-50-30.2s-55.5 41.3-74.7 30.9c-25.2-13.7 2-164 2-164s24.6-22.7 63.9-41.2Z" fill="#fff"/><path fill-rule="evenodd" clip-rule="evenodd" d="M362.5 41.8S422.6 1.9 459-5.3c19.5-4 28.3-5.3 38.6 8.6a28.5 28.5 0 0 1 4.8 15.6l.2 2.2a78 78 0 0 0 35.2 58.7 87 87 0 0 0 39.5 13C626.6 98 676 98.7 723.7 83A142 142 0 0 0 777 54.3c9.4-8.6 9.5-14.9 0-23.1-3.7-3.3-2.6-6-1.3-9.1.4-1 .8-2 1-3.1C781 1.4 782-.2 801.1 2c29 3.5 58.4 10 80.4 29.2 59.6 52.1 59.8 81 60.1 154 0 10.5.1 22 .4 34.7.2 12-6.8 17.9-18.6 19.6-23.3 3.5-39-5.8-50.4-25.4-4.6-8-10-15.6-17.7-21.4-16-11.7-21.7-12.4-36.7 0a328 328 0 0 1-123.4 62.5 259.6 259.6 0 0 1-184-16 156 156 0 0 1-49.8-33.7c-4.6-5.1-10.7-8-17.1-6.5l-4.8 1.1c-14.9 3.4-29.8 6.9-42.7 15.8a39.9 39.9 0 0 1-39.6 4.8c-12.1-5.4-11.8-18.7-10.7-30.2 1.4-13 2.3-26 3.2-39 2-29.6 4.1-59.4 11.3-89-11.7 1.3 1.5-20.7 1.5-20.7ZM494 155.6c41.2 27.3 86.7 37 136 37.2 49.4 0 95.2-8.8 139-34.4-30.9-17.7-26.5-42.3-16.5-69.3L742 91.8c-6.7 1.6-12.7 3.1-18.4 5.2-23.7 8.7-48.8 11.7-73.3 14.6-32.9 3.7-66-2-98.1-9.9a78.7 78.7 0 0 1-43.7-24.5c-2.5-3-4.3-6.3-6-9.7-2.6-4.7-5-9.5-9.5-13.1a11.5 11.5 0 0 0-.2 12.3c2.5 4.1 4.8 8.3 7.2 12.5 7 12.3 14.1 24.7 22.7 35.8 6.4 8.3 7.5 15.8 7.2 26.7-15-3.4-29.3-6.5-42.3 2.5-.1 4 2 6.4 4.8 9.5l1.6 1.9Zm274-58.8 2-3.2c3-5.6 7-10 11-14.4 5.7-6.2 11.2-12.2 13.2-21 3.4-15 6.5-29.1-.5-42.2 2-3.7 4.3-4.5 6.3-4l7.6 2c31 8.2 62 16.2 82.8 44.4a169.2 169.2 0 0 1 34.4 85.3c2 20.9 4 41.8 5.2 62.7 0 1.3.2 2.6.4 4 .8 6.4 1.7 13.3-7.5 16.4-11.2 3.8-25.7-.7-31.7-10-1.7-2.7-3.1-5.5-4.6-8.3-1-2-2.1-4.1-3.3-6.1-18.8-32.3-49.1-50.1-83-62.4-8.7-3-19.3-1.8-29-.7h-1l-.4.2c-9.8 1-11.3-3.6-12.4-11.3-1.9-12.6 4.2-22 10.4-31.4ZM362.7 196c.9 14 4 17.4 13 12.3l7.4-4.3c16.4-9.3 32.7-18.4 43.8-35.7a89.3 89.3 0 0 1 52.5-39.6c6.1-1.6 12.3-1.6 18.4-1.6 4.7 0 9.4 0 14.1-.6-.8-4.7-3.2-7.6-5.5-10.5l-1.8-2.2C484 86.3 467.9 57.1 472 21.1c.8-6.9-3.5-8.5-8.1-8.3-9.3.4-18.3 1.5-27.3 4.8A230.1 230.1 0 0 0 406.1 32c-6 3.2-12 6.4-18.2 9.3-6.8 3.2-14 8.1-14 16.8.1 9.6-1.9 18.8-3.8 28-1 4.4-2 8.7-2.6 13a501.2 501.2 0 0 0-4.6 80.2l-.1 16.6ZM599 206.6c34 5 67 .2 100.2-5a258.2 258.2 0 0 0 75.9-30c8.9-5.3 19.2-4.5 30.3-3.5 4.5.3 9.1.7 13.9.7-15.4 16.7-32.6 27.4-49.6 38l-4.1 2.6a229 229 0 0 1-83.5 32.9c-30.3 5.1-60.6 8.7-92.2 4.2a230.6 230.6 0 0 1-94.4-33.9c-17.9-11.5-35.3-24.3-47.7-42.4 18.7-12.3 26.9-11.6 44 .2 32 22.3 69 30.7 107.2 36.2Z" fill="#000"/><g transform="translate(396 278)" style="mix-blend-mode:difference"><g fill="#fff"><path d="m302.9 264.7-.5.1h.5Z"/><path d="M410.3 250c-3-10-7.3-19.7-13-28.5a217.4 217.4 0 0 0-24.8-32.8 410 410 0 0 0-64.7-54.4 371.2 371.2 0 0 0-53.1-30A199.3 199.3 0 0 0 188 83.5c-12-.9-24.3-.1-36.2 2.3 11 1 22 2.8 32.7 5.4 14.8 4 33.2 11.6 49.3 18.1 20.5 9 40.7 18.8 59.8 30.5 29.6 19 53.5 38 76.8 62.8 12.4 14.3 20.5 25 28.4 40.5 3.7 8 6.4 16.6 8 25.3.8 6.1.7 5 .8 8.6v1.4l-.4 2.8v.1a44.4 44.4 0 0 1-19.2 27.3c-26.3 17-53 25.7-84.3 24.3-20.5-.8-41.7-6-58.8-10.7a385.2 385.2 0 0 1-61.8-22.6c-17-8-33.5-17.2-48.2-29-16.7-13.3-31.1-24.6-45-42.6-9.2-11.8-14.4-19.2-19.9-33l-.8-2.5c-1.6-5.4-1-2.5-1.7-8.3.2-3.5-.8-8 2.4-13.3a63 63 0 0 1 33.3-24c7.4-2.3 21.7-4.6 32.5-4.7 8-.1 16 1.2 23.9 2.4 15.7 2.8 28.7 6.9 44.7 13.5 14.7 6 29 12.8 42.9 20.4 29.1 16.6 63 42.2 70.4 67.4l.4 1.6v.2c.3 1.2.5 2.5.6 3.7v.3a114.5 114.5 0 0 0-.2 1.7l-.3 1.3c-1.5 4-7 7.6-15.3 10.1h-.3l-.3.2h.1a86 86 0 0 1-16.3 1.6c-9.5.1-18.9-1.6-28-3.8a126.6 126.6 0 0 1-38.1-15.5 189 189 0 0 1-26.9-18.4c-5.9-5-11.6-10.3-16.3-16.6-2-3-2.9-4.1-3.9-7.7a39.8 39.8 0 0 1 .2-.8l.2-.3v-.2l1.2-1.3.3-.4.3-.2c2.8-1.9 5.9-3.3 9-4.3 4-1.1 8.2-1.7 12.3-1.7a100.8 100.8 0 0 1 45.5 11.7 103 103 0 0 0-11.2-8.6c-12.8-8.2-29.1-15.6-44.6-14.2-12.4 1.7-19.9 6.7-20.1 20-.2 12.2 8.1 22.3 16.5 30.3 6.3 6 13 11.6 20.3 16.6a213.5 213.5 0 0 0 34 19c7.7 3 15.6 5.5 23.7 7.2 9.6 2.2 19.5 3.6 29.3 3 6.7-.3 13.5-1.1 19.7-3.8 25-9.7 16.6-42 3.8-58.7a158.2 158.2 0 0 0-36.9-35.3 284 284 0 0 0-51.1-29.7c-14-6.3-28-12.5-42.8-16.8a209.3 209.3 0 0 0-39.5-7.7c-7.8-.4-15.6 0-23.2 1.1A76.8 76.8 0 0 0 77.2 147a49.5 49.5 0 0 0-13 15.9 49.1 49.1 0 0 0-3.4 24c1.6 18.5 11.9 35 22.9 49.6a187.5 187.5 0 0 0 30.9 32.4c11.3 9.5 22.6 19.1 35 27 25.6 16 53.7 27.7 82.4 36.6 28.4 8.3 57.8 16 87.6 14.2a144 144 0 0 0 75.9-29 55.6 55.6 0 0 0 19-35.6 90 90 0 0 0-4.2-32Z"/><path fill-rule="evenodd" clip-rule="evenodd" d="M528.4 299.2c2 3 4 6.1 4.8 9.6 1 4.7 1.3 11-3 14.2-2.5 1.4-5.6 1.7-8.5 2l-1.4.1c-5.3.4-10.6.5-15.9.4h-.4c-2.8 5.2-5.5 10.5-8 16 1.3-5.1 3-10.6 5-16.2a213 213 0 0 1-8-.5 142.3 142.3 0 0 0 3.3 8.2l-.5-.7-.6-1c-1.4-2.1-2.8-4.3-4-6.6a126.6 126.6 0 0 1-26-5c-5-1.5-10.6-3.3-12.2-8.7-1.3-5-.3-11 4.2-14a142 142 0 0 1 18.1-12.4c-.7-3-1.4-6.3-1.8-9.5-.7-7.3-1.7-22.4 9-22.2 4.4 1 7.9 4 11.2 6.8l1.6 1.3a150.9 150.9 0 0 1 8.8 8.5c3.8-1.7 7.7-3 11.6-4.2 3.1-.8 6.4-1.4 9.5-.4 3.8 2 4 7 3.5 10.8-.5 2.8-1.4 5.4-2.7 7.9l-3.5 7.1c2 2.6 3.8 5.3 5.6 8l.3.5Zm-8.8-20.8c-1.7.3-3.4.7-5 1.3l-.4.1-.5.2 3.6 4.2 2.4-5.8Zm-37.2-11.6 4 2c2.5 1.8 4.9 3.7 7 5.8a349 349 0 0 0-12.5 6.8 58.4 58.4 0 0 1-1-14.2l.8-.4h1.7Zm-3.3 30.2c-4.7 2.7-9.4 5.6-13.8 8.7 6 2 12.4 3.4 18.8 4.2a244.4 244.4 0 0 1-5-13Zm9 13.4-4.3-16v-.1l2.8-1.6c5.4-3 11-6 16.6-8.5a222 222 0 0 1 9.6 10.8l-6.6 16.5c-6 0-12.2-.4-18-1Zm29.3-9.7-5.8 10.8c4.3 0 8.6-.3 12.9-.8l-.9-1.4c-2-2.9-4-5.8-6.2-8.6Z"/><path d="M262.6 221.8c2 6.7 3.6 10.8-3.4 12.4-5.4 1.1-11 .5-16.4.4-.8 0-1.1 0-.2.3a45 45 0 0 0 9.6 3.6c12.6 3.2 17.6-6.8 10.4-16.7ZM412.8 353.9c-4.7 2.5-9.9 4.1-15 5.8a237 237 0 0 1-21.2 5.6 261 261 0 0 1-58.3 5c-22.6-1-45-4.8-66.8-11-18-5-45.7-11.8-72.3-22.3l-5.7-2.3a851 851 0 0 0 56.3 29.5 196.2 196.2 0 0 0 55.3 16.5c18.7 3.2 37.7 4.2 56.7 3 10.3-.6 20.8-1.6 30.9-4.3a134 134 0 0 0 39-17.4c8.7-6.3 15-15 21.4-23.6-6.6 5.7-12.6 11.2-20.3 15.5ZM391.5 147.3l-4.2-2.4 7.3 7a340.7 340.7 0 0 1 50.5 71.3c-8.6-31-23-61.4-53.6-76ZM18.6 152c5.3-8.4 19-25 29-31.4A100 100 0 0 1 75.5 106a95.2 95.2 0 0 1 21.2-2.5 69.2 69.2 0 0 0-23.6-2.9A78.2 78.2 0 0 0 44 111c-13.7 8-24 20.7-32 34.1a89.6 89.6 0 0 0-11 45c.8 19.6 8 38.5 18.3 55a300 300 0 0 0 38 44.2l15.1 14.5A518 518 0 0 1 27.1 242c-14.5-23.5-21.2-43.7-18.5-62.6a64 64 0 0 1 10-27.5Z"/><path fill-rule="evenodd" clip-rule="evenodd" d="M134.7 341.1c-1.8-3-3.7-6-5.8-8.9l-.6-.7-.5-.6 1.4-2.6c1.3-2.1 2.5-4.3 3.3-6.7.8-3.5.8-8.2-2.3-10.6a7 7 0 0 0-4.4 0 43.7 43.7 0 0 0-11.4 4.2A264.7 264.7 0 0 0 91.6 294c-1-.9-2.1-1.8-3.4-2.4-3.5-1.4-5 3.2-5.3 5.8a64.1 64.1 0 0 0 2.5 20.5c1 4.3 2.3 8.6 3.7 12.8l-4 2.8-.7.5-9.8 7c-3 2.3-6.4 4.9-7 8.9-.7 3.5-.5 8.3 2.9 10.4 3.6 1.2 7.5 1.5 11.4 1.8l2.4.2c5.3.4 10.6.4 16 .1 2.3 6.7 4.7 13.4 7.3 20 .2.9.7 1.7 1.3 2.4-.7-1.2-1-2.6-1.2-4l-.4-1.9-1.5-6.5-2.2-10.2c2 0 4.1-.2 6.2-.4-1.2 4.6-2.1 9.4-2.7 14.1 1.4-4.9 3.1-9.7 5.1-14.3a464.7 464.7 0 0 0 10.6-1.2l7.8-1c1.2-.2 2.4-.6 3.6-1a7 7 0 0 0 2.4-3c2-4.7.8-10-2-14.2Zm-44-32.9c4.8 4 9.3 8 13.6 12.4l-9.4 6c-1.7-6.7-3.2-13-4.2-18.4Zm2.5 34.4-8.4 5.7c3.5.2 7 .3 10.5.2l-2.1-6Zm7.3 5.8-2.3-9.2 4.7-3c3.1-2 6.8-4.2 10.5-6.2 1.6 1.8 3.4 3.7 5 5.7a230.1 230.1 0 0 0-4.3 11.6c-4.5.5-9 .9-13.6 1Zm19.8-3.5-1 1.9 7.2-1c-1-1.5-2.5-3.3-4-5.2l-.5 1-1.7 3.3ZM380.5 75.7c-1.2-2-3-3.5-5.2-4.4l-8-3.8c.3-14 .3-27.9-.3-41.8-.3-2-1.1-5.4-3.7-4.6a17.3 17.3 0 0 0-3.6 5 341 341 0 0 1-19.6 29.4 646.9 646.9 0 0 0-43.3-16.7c-1.8-.6-3.6-1.2-5.3-.4-4.3 3.3-3.8 10.2-1.7 14.6a64 64 0 0 0 9.8 12.5l.2.2c5.4 5.8 11.2 11.1 17 16.4l1.6 1.4 1 1a5872 5872 0 0 1-15 9.4 27 27 0 0 0-5.7 4 6 6 0 0 0 0 6.6 3 3 0 0 0 2.6.8c1.5 0 3-.3 4.6-.5 5.1-.9 10.2-2 15.3-3.1l5-1.2 9-2a3942 3942 0 0 0 12.6 11.1c4.2 3.7 10.2 9 14.2 5.6 3.4-3.3 3.8-8.2 4.1-12.7l.2-2.3.5-8.6 6.2-1.2c.5 0 1-.2 1.4-.3 1.4-.3 2.8-.6 4-1.3 4-2.9 4-9 2-13Zm-20-12.7v1.4l-9.3-4.1 5.6-6a57 57 0 0 0-8.4 4.8 242.4 242.4 0 0 1-4-1.7l-1.4-.6c6.5-6.2 12.5-12.8 18-19.8-.3 7.4-.4 16.6-.5 26Zm-55-7A1166.6 1166.6 0 0 0 337 85a225.8 225.8 0 0 1 23.2-6v-.5c-5.7-2.6-11.5-5-17.3-7.5l-3.5-1.5a55 55 0 0 1-5.6 3 94 94 0 0 1 3.5-3.9l-5-2.1a54 54 0 0 0-.7.6l.4-.5.1-.2c-8.8-3.6-17.6-7.2-26.6-10.5Zm5 38.4c3.3-3 6.5-6.2 9.6-9.4l4.5 4.1a556 556 0 0 0-14 5.3Zm38.5 1 1.8 1.7 1 .9c1.5 1.2 3.7 3.2 6.7 4.4h.5c.3-2.6.6-5.7.7-9.3L349 95.4Z"/></g></g></g><g transform="translate(266 207)"><path fill-rule="evenodd" clip-rule="evenodd" d="m765.1 235.9-.5-.7c-32.5-40.3-71.6-67.2-123.5-75a296 296 0 0 0-183.2 28 246.7 246.7 0 0 0-92.3 78.2l-.4.5c-10.1 14.4-20 28.4-40.2 30.4-10.5 1-19 8-27.4 14.6l-1.3 1c-26.3 21-44.3 48-56.2 78.9-7.6 19.8-14.1 40-19.6 60.4-3.2 12.1-6 24.5-8.7 36.8-3.9 17.5-7.7 35-13.1 52-11 34.6-23.7 68.6-36.5 102.6a11512.9 11512.9 0 0 0-7.9 21c-5.6 15-11.2 30.2-19.7 43.5-14.3 22.7-28 45.4-35.8 71.3-6.4 21.2-2 38.8 16.4 51.8a530.3 530.3 0 0 0 80.2 46.5 558 558 0 0 0 114 39.2c29 6.6 59.4 9.8 86.3-4.2 14.4-7.5 28.7-9.6 43.4-11.8l3.5-.5a18.6 18.6 0 0 0 16.4-13.8c11.3-34.1 18-69.1 16-105.1-.5-9.7-2-19.3-3.6-29-1.3-8.4-2.6-16.9-3.3-25.4-3.7-46.5-21.4-88.7-40.8-130-13.6-29.4-25.4-58.2-21.2-91.6 3.2-26.3 24.9-53.9 44-58 9-2 18-3.8 27.1-5.7 18.4-3.8 36.7-7.6 55-12 43.3-10.2 82.2-29 117.7-55.4 3-2.2 5.6-4.8 8.2-7.3 4.2-4.2 8.4-8.3 13.8-10.7l1.4 1c.6.5 1 .8 1.3 1.3 20.2 42 51 74.4 90.1 99.4 12.8 8.2 25.6 16.4 38.2 25 13.7 9.2 23 20.2 21.9 38.8-.7 12-.5 24.2-.3 36.4.3 13.4.5 26.9-.5 40.3-.7 10.6.6 21 2 31.3 1.8 14.9 3.7 29.8-.4 45.5-1.5 5.6-2.8 11.2-4.1 16.8a282 282 0 0 1-13 43.8 163.6 163.6 0 0 1-54.4 69.7l-4.8 3.5c-13.8 10.4-28 21-45 27-.1 0-.3 0-.5.2-4.8 1.6-10.5 3.6-8.8 11.6 8.8 2.4 16.6-.4 24-4.7a94 94 0 0 1 10.1-5l16-6.7c17.4-7.2 35-14.4 51.2-23.7a393.8 393.8 0 0 0 58.5-39.8c33.6-28.2 63.4-58.3 73.3-103.5 6.7-30 .7-55.4-21.3-77a30 30 0 0 0-2-1.6c-1.9-1.6-3.8-3.2-4-5.8 25.3-44.4 41-90.9 33.2-142.5-6.8-46.2-25.6-86.9-59.9-119.4a209.6 209.6 0 0 0-82.7-46.4c-5-1.6-8-4-9.8-8.8-3.4-10-9.7-18.3-16.5-27.2ZM379.3 587.4c0 .9.3 1.7.5 2.5 2.8 15.4 4.8 28.8 7.2 44.2v.2c-11.4-7.4-15 .4-18.9 8.4l-.1.3a65.5 65.5 0 0 1-14.6 20.4c-16.9 15.7-45.2 3.5-57-22.4a221.2 221.2 0 0 1-22.4-89.5l-.1-4.8c-.3-18.8-.6-38.5 13-54.9 6.6-7.9 15-14 24.5-17.9 10.5-4.2 20.5-3.5 28 7.7 21.5 32.2 37.2 66.5 39.9 105.8Z" fill="#000"/></g><g transform="translate(791 871)"><path d="M188.2 86.4c-26.7 11.3-52.6 12.5-78-.5-6.5-3.2-12-2.4-18.7.7-3-9.6-3.7-18 3-25.5 2-2.1 3.9-5 7.4-3.7 3.1 1 5 4 4.2 7-2 7 3.5 7.8 7.4 9.7 26.8 13.6 52.6 8.7 78.1-4.1 4-2 4-5 3.7-8.6-.3-3.7.8-7 5.3-7.2 4.5-.2 7.6 2.4 7.9 6.7.5 7.1 0 14.3 0 22.8a22 22 0 0 0-20.3 2.7Z" fill="#000"/></g><g transform="translate(653 805)"></g><g transform="translate(901 668)"><path d="M82 57.5c4.9-6 9.2-11.2 13.8-16.2 2.5-2.8 6-4 9-1.2 3.5 3 1.3 5.8-.8 8.8C96 60.4 86 70.1 80.5 83.4c-4 9.8-5.3 19-2.3 29.6 5.8 19.9 10.5 40 15.1 60.2 3.3 14.4-2.3 23.8-16 29-4 1.6-7.9 3.2-11.7 5-16.4 8-30.4 1.5-44.4-8.6 3.8-8 9.6-10.7 18.5-5.7 8.7 5 32.7.6 39.6-6.8 4.5-5 1.4-9.7 0-14.4-5.8-19.7-14-38.7-15.6-59.8a68.6 68.6 0 0 1 18.4-54.4Z" fill="#000"/></g><g transform="translate(610 680)"><path d="M407.4 122.5c13 .3 25.4 1.1 37.6 2.5 3 .4 5 3.3 5 6.7 0 3.3-1.7 5.6-4.7 7-11.2 4.8-22 8.2-33.7.2-6.5-4.5-9-8.7-4.2-16.4ZM251.2 124c6.4 2.8 5.6 6.6 3 10.6-5.9 8.6-27.3 12.5-36 6.6-5-3.4-8-8-5.6-14 2.5-6.2 7.7-5.6 12.8-3.6 8.3 3.3 16.5 1.7 25.8.4ZM419.6 111c-4.2-9.5-9.9-15.2-19.8-15.7-6-.3-7-5.1-8.9-9.8 2-1.5 3.5-3.7 5.3-3.8 21.1-1.7 42.4-1.8 63.5-.1 6 .4 9.3 8 3.2 10.4-10 4-12.5 13.2-18.5 19.8-8.2 9-15.2 9.1-24.8-.8ZM229.6 81.1c12.2.7 23.1 1 34 2 3.6.3 8 1.8 8 6.7 0 5.6-4.6 5.2-8.3 5.1-6.3 0-9.7 2.7-12.5 8.6-3.4 7.4-6.9 15.3-18 14.8-10.5-.6-15.1-7.2-18.2-15.2-2-5.7-4.9-8.4-10.9-8.2-3.4.1-7.1-.2-7.5-4.9-.4-5 3-6 7-7.2a67.7 67.7 0 0 1 26.4-1.7Z" fill="#000"/></g><g transform="translate(610 680)"><path d="M474.1 17C499.7 31.2 503.5 68 495 84.7c-8 15.4-19.5 28.5-32.9 39.9a104.9 104.9 0 0 1-38.8 22.8c-7 2-13 .1-18.1-3.3-18.1-12-33.2-27.5-47.5-43.7-3-3.6-5.3-7.7-6.6-12.3-4.3-14.2-14.9-19.2-28.3-13a50.9 50.9 0 0 0-22.3 18.4 150.8 150.8 0 0 1-53.6 49.7c-14.2 8.1-23.5 6.4-37-3.6-13-9.7-24.9-20.8-35.4-33-8.4-9.8-16.8-19.4-15.7-33.5.3-4.6-2.5-7-6.5-8.3a14 14 0 0 0-3.7-.7c-21.3-1-41.3-9-62.6-10.3-16-1-30.9-8.7-46.5-12.6-4.5-1.2-8.7-3.8-13.2-4.6-6.5-1.2-7.8-5.5-9-11.6A65.5 65.5 0 0 1 52 29c18.3 7.3 38 8.5 57 12.8 15.5 3.6 31.5 5 47.7 10.1 4.5-17.5 11.5-32.7 29.6-40 19.9-8 33.2 3.2 48 15 15.2-8.1 31.4-17.3 49.7-9.8 18.4 7.4 22.8 24.7 26.2 42.7 11.6.4 22.8-3.5 34-.7 3.9-7 4.4-14.3 6.3-21.2a37.2 37.2 0 0 1 57.7-21.8c9.8 9 19 9.6 31.5 2.9a38.5 38.5 0 0 1 34.3-2.2Z" fill="#000"/><path d="M193 63.5c-1-.3 1 0-.2.4-6.6 2 50.7 52.8 55.8 48.5 3-2.5-49.5-46.3-55.7-49ZM213.3 39.7c-.9-.3 1 0-.1.4-6.7 2 50.7 52.8 55.7 48.5 3-2.5-49.5-46.3-55.6-49ZM388.2 63.5c-.8-.3 1 0 0 .4-6.7 2 50.6 52.8 55.7 48.5 3-2.5-49.5-46.3-55.7-49ZM408.6 39.7c-.9-.3 1 0-.1.4-6.6 2 50.7 52.8 55.7 48.5 3-2.5-49.5-46.3-55.6-49Z" fill="#fff"/></g><g transform="translate(774 657)"><path d="M81.4 35C60 29.6 52 33.2 40 52.6c-2.4 4-3.4 11.4-10.6 7-5.6-3.4-5.3-8.8-2.6-14.6a51.4 51.4 0 0 1 38-30.7 33.1 33.1 0 0 1 37.5 26.4c.9 5.3.1 10-4.8 13.6-11.2-1.3-8-14.2-16-19.1ZM246.2 32.8c14-6.2 27-12.4 41.2-1.9 5.1 3.7 9 8.8 11.3 14.7 2 5 2.3 10.7-2.7 13.8-5.7 3.5-8.1-2.1-11-5.6-10.4-12.8-18.4-13.7-32.4-4.6-4 2.6-6.8 8-13.5 7-5.7-9.6-.1-16.3 7-23.4Z" fill="#000"/></g><g transform="translate(0 559)"></g></g></svg>