<svg xmlns="http://www.w3.org/2000/svg" viewBox="0 0 1744 1744" fill="none" shape-rendering="auto"><metadata xmlns:rdf="http://www.w3.org/1999/02/22-rdf-syntax-ns#" xmlns:xsi="http://www.w3.org/2001/XMLSchema-instance" xmlns:dc="http://purl.org/dc/elements/1.1/" xmlns:dcterms="http://purl.org/dc/terms/"><rdf:RDF><rdf:Description><dc:title>Notionists</dc:title><dc:creator>Zoish</dc:creator><dc:source xsi:type="dcterms:URI">https://heyzoish.gumroad.com/l/notionists</dc:source><dcterms:license xsi:type="dcterms:URI">https://creativecommons.org/publicdomain/zero/1.0/</dcterms:license><dc:rights>Remix of „Notionists” (https://heyzoish.gumroad.com/l/notionists) by „Zoish”, licensed under „CC0 1.0” (https://creativecommons.org/publicdomain/zero/1.0/)</dc:rights></rdf:Description></rdf:RDF></metadata><mask id="viewboxMask"><rect width="1744" height="1744" rx="872" ry="872" x="0" y="0" fill="#fff" /></mask><g mask="url(#viewboxMask)"><rect fill="#c8f7dc" width="1744" height="1744" x="0" y="0" /><g transform="translate(531 487)"><path d="M554 727.7c-99.2 297-363.8 388.6-503.7 19.8-19.3-50.7 31-69.5 66.2-91.9 24.1-15.3 36.8-28.5 35.3-42.2-7-64.4-36.9-243.8-36.9-243.8l-3-5.8s.7-1.6-2.2 1.2c-3 3-9.9 34.2-37 34.2-24.5 0-49.2-10.9-61-86.3C7.2 285.6 9.6 214 40 201c12.5-5.3 24-7.2 35.2-.8 11.3 6.4-13-22 112-126C268.4 6.4 396.7-3.5 448.5 8 500.3 19.5 552 44.8 574.9 98.5c27.8 65-25.9 114.3-14 262.5-2.2 53.6.8 171.2-146.6 210.6-28 7.5-19.3 48.4 22.7 58.4 67 21 117 72.3 117 97.9" fill="#fff"/><path fill-rule="evenodd" clip-rule="evenodd" d="m554 266.2.1-1.4c4.1-36.4 8.2-71.7 27.1-103.4 6.5 4.4 5.7 10 3.7 15.2-19.9 51.2-18 104.4-16.2 157.6l.4 14c2.1 66.4-14.5 126.8-58.7 177.5-15.4 17.6-35.8 29.8-56.5 40.3-21.4 11-25.9 20.1-19.2 43.6l.8 2.6c1.4 3.9 2.8 7.9-1 11.8-4.5 4.6-9.5 3.3-14.8 1.8l-.6-.1a406.4 406.4 0 0 1-137-68.3c-6-4.4-10.8-10.3-15.5-16.1l-.3-.4c-2.5-3-3-7.8.5-10.4 3.3-2.5 5.8-.5 8.7 1.8l1 .9a145.5 145.5 0 0 0 76.3 31.7c13.4 1.4 26.6.9 40 .4 7.4-.3 14.8-.6 22.3-.5 10.2 0 18.7-4.7 26.7-9.2l2.8-1.6c27.8-15.5 54.3-32.8 72.2-60.7 16.1-25 25.9-52.2 31.6-80.9 7.2-36.1 6.6-72.7 6-109.8-.3-12-.5-24.2-.5-36.4ZM50.6 190.8c21.9-1.7 34 11.2 44.3 26.3a140.4 140.4 0 0 1 22.4 61.5c.5 3.7 1 7.6-1.2 11.3-4.5.6-4.9-3-5-5.6-.5-20.7-9.7-38.7-18.9-56.1-6.6-12.5-16.2-24.6-31.4-27.6-17.2-3.5-33 12-40.8 32.2-14.5 37.6-12 74.6 1.4 111 5.8 15.9 13.1 32.1 27.8 43.2 14.8 11.3 32.7 9.3 43.6-5.7l2-2.5c2-2.6 4-5.1 5-8 2.1-5.8 5.4-11.2 11.3-10.4 6.8 1 8 8.3 8.7 14a3661 3661 0 0 0 22 156.7l5.9 38.8c2.6 17.1 5.6 41.7 3.6 52.1a28 28 0 0 0-.3 2.2c-.4 2.8-.6 5-4.2 5.5-4.9.8-7-2-7.7-6.4-2.3-17-3-23.6-4-49.6-.9-25.2-5.6-50-10.4-74.9l-5-27c-5.2-30.8-10.3-62-10.8-97l-2 3c-7.6 11.3-13.7 20.5-24.5 24a40.5 40.5 0 0 1-46.1-12.5 127.8 127.8 0 0 1-28.8-55.8c-8.4-34-9.9-67.1.9-100.6 5.2-16.1 23.7-44.7 42.2-42Zm34.6 127.5c4.4 3.2 8.4 6 12-5.4-1.1-42.2-14.7-69.2-35.8-70.3 11.2 14.6 22 28.8 23 48.5a32.3 32.3 0 0 1-10.7-8.8c-2-2.2-4-4.4-6.5-6l-3-2.4c-4.8-3.6-9.7-7.4-17.8-4.5 3.8 5.8 9 10 14.3 14 6 4.7 12 9.3 15.6 16.5-10.6 7.7-15.2 17.7-9.7 29.9 4.8 10.5 11.9 19.2 25.9 19.8-.6-6.3-4.7-10.9-8.8-15.4-5-5.4-9.7-10.6-7.5-18.6 3.2-1.5 6.2.7 9 2.7Z" fill="#000"/></g><g transform="translate(178 1057)"><path d="m1315.2 701.4-1308.5.9S79.6 422 99 389.8c19.5-32.1 97.6-140.4 96.7-158.8-.9-18.4 1.5-83.8 14.7-109.6 13.2-26 55.2-61.3 71.6-64 16.4-2.5 71.7-5 106.2-13.7 34.5-8.6 66.4-19.3 101.5-19.3 5.7 0 .2 12.5.2 12.5s1.8 122.3 164.8 130c121.5 5.7 161.7-117.6 161.7-117.6s-26.7-23.8-18.6-24.4c95.6-8.2 145.7 13.2 174.7 18.8 26.8 5.2 49.2 5.2 76 24.2 30.7 21.7 46.5 71 80.9 146.5 39.3 86.6 194.1 349.3 185.8 487.6" fill="#000"/><g fill-rule="evenodd" clip-rule="evenodd" fill="#fff"><path d="M1003.5 704.5c-.8-17-1.1-34-1.5-50.9-.8-37.1-1.6-74.3-6.4-111.5-4.4-34-9.5-68-15-101.9A2951.8 2951.8 0 0 0 947 274.4c-4.2-18.9-11.5-37.4-19.3-55.3-5.7-13-10.4-26.4-15.2-39.8-5.5-15.3-11-30.6-17.8-45.4-1.2-2.6-2.7-5-4.2-7.4-3-4.5-6-9.3-7.5-16.4-47.5 93.4-120.4 141.8-223.2 142.3-101.2.4-176-46.2-230.6-130.3-8.6 7-12.5 17-16 26l-1.4 3.3c-18.6 45.9-36 92-41.5 142.2-3.1 29-7.6 58-12 86.8l-1.8 11.4c-6.9 45.2-13 90.7-16.2 136.4-4.3 58-8.8 116-13.4 175.2-4.7 1.1-9.1 1.1-14.6 1.1a688 688 0 0 0 5.2-74.8c1.6-49.7 7.3-99 13-148.2L335 441c3-28 7-56 11.1-83.8 4-27.5 8-55 11-82.7 4.9-44 21.9-85.2 40-125.6l.8-2c10.4-23.3 20.8-46.7 37.5-66.5 12.9-15.3 27.5-28.9 44.8-39 13.9-8.1 18.4-6.4 23.1 9 9.6 31.5 26.3 58.5 53.3 76.9 42.8 29 89 42.2 141.3 26.9 36.5-10.7 66.6-29.1 88.3-60.2 8.4-12 16-25 18.5-40a205.3 205.3 0 0 1-18.2-7v-.1c-3-1.4-6.7-3-5.1-7.5 1.2-3.4 4-5.9 7.8-5.3 33.1 4.5 64.5 11.7 86.4 41.1a347 347 0 0 1 47.4 89.2l7.5 20.4c12.6 33.7 25.1 67.4 34.4 102.2 3.6 13.8 6.4 27.7 9.1 41.7l3.6 17.9 5.2 23.7c4 18.2 8 36.3 10.9 54.7 2 12.6 4 25.2 6.2 37.8 6 35.9 12.2 71.7 13.8 108.2.8 18 2 36 3.4 54 1.1 15 2.2 30.1 3 45.3.4 8.2-.4 16.5-1.3 25l-.8 8.6c-4.8.6-9.7.9-14.6.7ZM818.4 64c-8 18.5-15.8 37-29.3 52.4-34.3 39.1-78.7 57-129.4 58.5-34 1-67.5-6-97-25-28.5-18.4-53-40.7-65-74l-1.2-3.8c-2-5.8-4-11.8-8.6-16-13.2 3-16.7 11.3-14.6 23l.9 5.8c.5 4 1 8 2.4 11.7 12.5 35.4 37 61.4 68.3 80.4 24.6 15 51.4 24.8 80.8 28.5C686 213 742.2 205 792 167.7a128.3 128.3 0 0 0 53.4-90.4c1.7-15-7.2-22-24.7-18.7l-2.3 5.4ZM457.2 79.8c20 82 77 121.4 153.7 138.6 39 9.8 76 8.2 113.1-1.5 41.3-10.7 77.6-29.3 104.8-63 16.6-20.8 28.9-43.7 29.3-71.6 15 7.8 16.5 13.2 6.5 32A229 229 0 0 1 768 212c-46.4 24-96.4 30.4-148.6 22.5-54.2-8.1-98.7-33.7-137.7-70.4a245.5 245.5 0 0 1-35.2-45.3l-6.8-10.3c-2.7-4-1-7.2 1.7-10.3a4082.7 4082.7 0 0 1 15.8-18.5Z"/><path d="M215 704.5c4.6-15.4 6.3-31.3 8-47.3.8-8 1.7-16 2.9-24l2.7-18c3.5-24.2 7-48.4 12.4-72.4l4.9-20.6c3.1-13.3 6.3-26.6 8.7-40.1 4-23 10.8-45.5 20.4-66.9a251 251 0 0 0 22.2-102 470 470 0 0 1 4.7-52.5c1.7-13 3.3-26 4.1-39 1.6-24.7.4-49-1-75.6-3.8 3-7.5 6-11 9a714 714 0 0 1-22 17.6c-43 32.4-76.4 73.2-105 118a613.1 613.1 0 0 0-29.8 54.7c-3.8 7.5-7.5 15-11.4 22.4A833.1 833.1 0 0 0 85.5 462c-2 5.8-4.3 11.5-6.4 17.2-17.9 47-35.8 94.2-42.8 144.4-2 14.4-6 28.2-9.9 42.1-3.5 12.4-7 24.8-9.3 37.9-5.5 1-10.8 1-17.1 1l2.8-9.8c8.4-29.5 17-59.1 21.3-90 2.1-15.6 6.6-31 11.1-46.2l3-10.5c4.5-15.5 10.3-30.5 16-45.5 5-13 10-26 14.2-39.5 4.9-15.8 11.5-31.2 18-46.5 2.5-5.7 5-11.3 7.3-17 16.6-40.3 37.4-78.6 59-116.3l.3-.5c7.4-12.9 15-26.1 26-36.7 8.7-8.3 9.2-19 9.7-29.7a105 105 0 0 1 2.4-20.1c5-31.7 10.1-63.6 26.2-91.8 16.8-29.4 44.6-45.7 77-53.6 23.6-5.8 47.6-9.4 71.8-11 10-.5 19.8-3.7 29.6-6.9 5.2-1.7 10.5-3.4 15.8-4.7 5-1.2 10-2.6 15-4C445.8 19.2 464.9 14 485 15h1c4 .2 8.3.3 9 5.5.6 5.1-3 5.8-6.6 6.5l-2 .4-42 9.9C418 43.5 391.7 49.8 365 55.6c-11.5 2.5-23.5 3.2-35.4 4l-8.8.6c-8.6.6-16.7 1.7-23.8 6.3 25.8 16.1 41 37.8 40.6 68.8-.3 18.3.5 36.5 1.2 54.8 1 24.1 2 48.2.6 72.3-1.7 31.5-5.2 62.6-9.9 93.8-2.7 18.1-4.7 36.4-6.8 54.6-2 17.2-4 34.4-6.4 51.5-2.5 17-4.1 34.2-5.8 51.3-1.5 15.8-3 31.6-5.2 47.4-2.6 18.5-4.4 37-6.3 55.6-1.6 16-3.2 32.2-5.3 48.2-.5 4-.7 8.2-1 12.3-.5 8.7-1 17.5-4 26.5-5.7 1-11.4 1-17 0a770 770 0 0 0 16.7-101l.4-3.8c2-16.5 3.4-33 4.9-49.6 2.3-27 4.7-54 9.3-80.8a345 345 0 0 0 3.5-32.5c1.1-14.1 2.2-28.2 5.5-42.1a595 595 0 0 0 13-106c2.8-52.3 3.5-104.8.3-157-1-16.7-4.6-33.5-19.5-47 1.6 5 3.3 9.7 5 14.3 3.7 9.8 7.2 19 8 28.5a779 779 0 0 1 2.2 82.7c-.5 32.2-4 64.2-7.6 96.2l-3.5 33.1C306.3 375 301.2 411 296 447l-6.7 48.1c-2 14.5-3.4 29.1-5 43.7-1.7 17.5-3.5 35-6.1 52.4-1.6 11-2.6 22.2-3.6 33.3-1.7 18.5-3.3 37-8 55.1-.2 1.2-.6 2.5-1 3.7-1.9 6.8-4 14-.5 21.3a100 100 0 0 1-16.7-1c.8-7.8 2-15.3 3.2-22.7 1-6.5 2.1-13 2.8-19.6 1.4-13.7 3-27.3 4.5-40.9l5-45.1c3-29 6.8-57.9 10.7-86.8l5-37c-2 8.2-4.4 16.2-6.8 24.1-3.5 11.5-7 22.9-8.8 34.6-2.6 16.8-6 33.3-9.6 50-4.5 21.5-9 43-11.6 65l-3.1 22.7a361 361 0 0 0-5.3 56.7H215Zm60.3-554.3a93.8 93.8 0 0 1 20.5-17c6.7-3.8 8.6-10 6.2-16.3-1.2-3-1.6-6.5-2.1-9.9-1.1-7.8-2.2-15.7-11.6-19.7-5-2.2-9.8-.3-13.3 2.2a70.8 70.8 0 0 0-17.4 16.6c-17.2 26-26.7 55.2-35.7 88.3 11-11 22.2-19.5 33.3-28.1 6.8-5.2 13.5-10.4 20.1-16Zm-37.6-40c-9.8 23.6-19.7 47-22 73a56.4 56.4 0 0 1-11.4 31.2l3.7-18c6.8-33.4 13.6-66.9 33.8-96l-4 9.8ZM1276.5 559.3c15.8 47 24.1 96 31.6 145.2 5.5 0 10 0 14.6-1-4-39.4-12.7-76.7-21.4-114l-.2-.6c-4-17.6-9.8-34.7-15.6-51.8l-5-15a1501 1501 0 0 0-43.6-120.6 660.7 660.7 0 0 0-30.5-60c-4.7-8.5-9-17-13.3-25.7a333 333 0 0 0-35.9-59.7c-5.8-7.4-11.8-14.9-14.5-23.3a2262.2 2262.2 0 0 0-37.2-102.7 155.7 155.7 0 0 0-32.7-54c-20.4-21-48-28.5-75.1-35-23-5.4-46.1-10-69.2-14.5L888 18.4a354 354 0 0 0-103.9-6c-5.5.5-10 1.8-12 10.6 14.6 1.7 29.2 2 43.7 2.4 24.2.7 48.4 1.3 72.4 7.9 25.2 6.8 51 12.3 77.4 17.9 12.5 2.6 25 5.2 37.9 8.1-9.2 9.7-9.5 19.4-9.8 29l-.1 4.5c-.8 14 1.4 27.7 3.5 41.4 1.5 9.4 3 18.8 3.5 28.2 2.4 44.8 9.6 89 16.8 133l1.3 8.4c3.5 21.3 6 42.7 8.5 64 2.3 19 4.5 38.1 7.5 57 4.7 31 6.4 62.4 8.1 93.7 1.2 21.3 2.4 42.6 4.5 63.9 2 21 3.6 42.1 5.1 63.3 1.4 19.6 2.8 39.2 4.7 58.8h11.8c-.6-49.1-4.2-98-7.9-147-1.8-25.2-3.7-50.3-5.2-75.4a769.2 769.2 0 0 0-7-62.6c-1.6-10.8-3-21.5-4.4-32.2-3.7-31.7-8.7-63.2-13.7-94.7-4.3-27.2-8.6-54.3-12-81.6-1.8-13.2-4-26.2-6-39.3-4.6-27.2-9-54.3-9.4-82-.1-11 3.4-19.7 12.5-27-14.6 30.1-8.2 59.2-1.8 88 1.7 7.7 3.3 15.2 4.6 22.8 1.2 6.7 2.5 13.3 4 20 2.7 13.3 5.5 26.7 6.2 40.2.6 11.2 2.8 22 4.8 32.7 1.5 7.5 3 15 4 22.7 2.4 19.7 5.6 39.3 8.8 59 5 30.6 10 61.2 12.2 92.3 1.8 26.5 7 52.9 12 79l.7 4c2.5 12.8 3 25.8 3.4 38.4l.1 2.1a972 972 0 0 0 4.2 55.3c2.2 24 4.5 47.9 4.5 72l-.3 4.4c-.1 2.4-.3 5-.1 8a47 47 0 0 0 11.4 1c2.7-45.3-.4-90.4-4.4-138 14 40 21 79.4 28 119.4l3 17.4c5.4 1 11 1.2 16.5.3-4-8.8-4.6-17.9-5.2-26.8-.5-5.6-.9-11.1-2-16.5l-3.4-14.6c-7.8-35-15.6-70-30-103.5l-3.1-6.9a74 74 0 0 1-8.3-25.2c-1.1-15-4.1-29.7-7-44.2l-2.5-12.3a723.9 723.9 0 0 1-7.8-56c-2.2-19.1-4.4-38.3-8.1-57.3-3.7-18.8-7-37.7-10.1-56.6-5-29.5-10-59-17-88.3l-2-8.4a204.3 204.3 0 0 1-6.7-36.9c1.6.7 3.1 1.1 4.4 1.6 2.4.8 4.2 1.4 5.7 2.5l1 .8c31.2 24 62.6 48.2 87.1 79.5a488.4 488.4 0 0 1 56 87.2c5.8 12 12 24 18 35.9a951.4 951.4 0 0 1 37.1 78c11.8 28.9 21.4 58.5 31 88 3.8 12 7.7 23.8 11.7 35.6Zm-243.6-422.8c-6.1-3.5-10.4-8.2-11.4-15.4a65 65 0 0 1-2.9-33.4c2.2-15.3 12.7-19.6 26.5-13 19.9 9.3 28.6 27.5 37.1 45.2 1 1.8 1.8 3.7 2.7 5.5 8.2 16.9 15 34.5 22.2 53.2l10 26-11.4-10.8a453.4 453.4 0 0 0-55.4-46.7c-5.6-3.8-11.5-7.2-17.4-10.6Z"/></g><g transform="translate(396 278)" style="mix-blend-mode:difference"></g></g><g transform="translate(266 207)"><path d="M841.5 278.8c15 39.8 28.8 69.8 26.2 111.7-1 15.4-12.2 39.7-16 54.5-5.3 20.4-16.4 39.1-17.7 60.7-.2 2.7-2.2 4.5-6.8 5.4-7.8-10.2-8.8-23.2-9.2-35.2-1.2-37.5-3-74.8-11.4-111.4-2.4-10.3-6.3-20.1-10.4-32.7-3.7 34-3.7 33.8-34.6 34.3-55.6 1-111 4.3-166 12.3-15.7 2.3-17 1.3-27.8-18.8-11 7.4-10.7 20.6-16.2 30.6-16.7 30.9-38.2 57.1-70 73.9-11 5.8-33.4 5-58.8-1.7-9.5 30.3-32.5 56.6-24.4 92.2a41 41 0 0 1-7 34c-3.8 5.4-8 6.3-13.2 4.7-5.3-1.6-2.8-5.9-2.7-9.6.5-32.6-7.4-63.5-25.9-90.3-17-24.8-57.1-18.6-69.9 9.4-2.3 5.2-3.4 11.4-11.5 16.4-1.5-18.3-1.8-35 .1-51.5a486.2 486.2 0 0 1 25-112.7 307.7 307.7 0 0 1 95.3-135.4 300.6 300.6 0 0 1 162-65.4c12-1.3 23.9-3.6 35.9-4.8a284 284 0 0 1 124.4 15.8c53.8 19 100.2 48.2 124.5 102.7 1.5 3.5 3.7 6.7 6.1 10.9ZM365.7 632.1c4-1.1 6.8-.9 8 2.9 8.6 24.2 9 49.4 7.8 74.5-.5 9.6-16.4 21.2-29.7 23-12.7 1.6-24.5-.1-32-12-4-6.3-1-13 1.3-20.5-14.3.4-26.7 6-39.5 0-17-7.9-18.7-15.4-5.2-28l3.5-4.3c-6-7.6-15.8-8.7-22-15.5-6.9-7.3-7.9-14.2-2.3-21.5 7.4-9.5 19.2-11.3 27.2-5 3.1 2.2 5.7 5.2 7.5 8.6a44.5 44.5 0 0 0 40.7 24.6c18.2.5 28.3-10.3 34.7-26.8Z" fill="#000"/></g><g transform="translate(791 871)"><path d="M101.4 93.5c-2.6-12.2-2.9-25.4-21.6-18.7-2.6.9-5-3.7-3.1-6.7 4.4-7 10.7-11.9 19.6-10.9 10.6 1.3 20.9 10.6 20 19.5-.7 8.1-2 17.4-14.9 16.8Z" fill="#000"/></g><g transform="translate(653 805)"></g><g transform="translate(901 668)"><path d="M65.7 103.7c-.6 21.6 16.4 30.6 27.5 43.5 8.5 10 18.5 18.7 13.7 34.4a39.6 39.6 0 0 1-40.8 27.6 104 104 0 0 1-36.4-11A22.2 22.2 0 0 1 19 187.6c-1.7-3.8-5.4-7.8-.5-11.4 4.6-3.4 7 0 10 3.7 11 13.3 26 16.4 42.6 15.7A23.2 23.2 0 0 0 93 180.8c3.6-8.3-1.6-15.2-6.3-20.8-9.3-11-20-20.5-27.4-33.2-8.3-14.2-7.6-44.1 2.2-57.4 1.9-2.5 3.6-5 7.2-3.1 3.8 2 3.4 5.5 2.2 9a69.3 69.3 0 0 0-5.2 28.4Z" fill="#000"/></g><g transform="translate(610 680)"><path d="M409.2 75.7c13.1.3 25.4 1 37.7 2.5 3 .3 4.9 3.3 5 6.6 0 3.4-1.8 5.7-4.8 7-11.1 4.9-22 8.3-33.7.2-6.5-4.4-8.9-8.6-4.2-16.3ZM254.7 78.4c6.2 3.3 5.2 7 2.1 10.8-6.5 8-28.2 10-36.4 3.5-4.7-3.8-7.3-8.6-4.4-14.4 3-6 8.2-5 13-2.5 8 4 16.4 3 25.7 2.6Z" fill="#000"/></g><g transform="translate(610 680)"></g><g transform="translate(774 657)"><path d="M30.3 32.1C58 10 89.8 13.1 121 14.1c5.7 0 12.2 1.3 14.3 8.3 2.1 7.7-4.6 9.9-8.8 13.8a44.7 44.7 0 0 1-52.2 8.6 37.9 37.9 0 0 0-31.9 1.6c-2 1-3.8 1.9-5.8 2.6-6.3 2.5-14.3 6-18.6-.4-4.4-6.7 5.6-9 8.3-13.7.6-1 2-1.6 3.9-2.8ZM294.4 23.8c7.7 4.3 14.5 10 20 17 2.5 3 5 6.3 3 10.2-2.4 4.3-6.7 2.7-10.4 2.2-12.5-1.5-23.7-9.2-37-7.2-5 .8-9.9.7-15 2.5-13 4.7-31-6.4-33-19.8-1-5.4 1-8.5 6.8-10 22.2-5.7 44-9 65.6 5.1Z" fill="#000"/></g><g transform="translate(0 559)"></g></g></svg>