<svg xmlns="http://www.w3.org/2000/svg" viewBox="0 0 1744 1744" fill="none" shape-rendering="auto"><metadata xmlns:rdf="http://www.w3.org/1999/02/22-rdf-syntax-ns#" xmlns:xsi="http://www.w3.org/2001/XMLSchema-instance" xmlns:dc="http://purl.org/dc/elements/1.1/" xmlns:dcterms="http://purl.org/dc/terms/"><rdf:RDF><rdf:Description><dc:title>Notionists</dc:title><dc:creator>Zoish</dc:creator><dc:source xsi:type="dcterms:URI">https://heyzoish.gumroad.com/l/notionists</dc:source><dcterms:license xsi:type="dcterms:URI">https://creativecommons.org/publicdomain/zero/1.0/</dcterms:license><dc:rights>Remix of „Notionists” (https://heyzoish.gumroad.com/l/notionists) by „Zoish”, licensed under „CC0 1.0” (https://creativecommons.org/publicdomain/zero/1.0/)</dc:rights></rdf:Description></rdf:RDF></metadata><mask id="viewboxMask"><rect width="1744" height="1744" rx="872" ry="872" x="0" y="0" fill="#fff" /></mask><g mask="url(#viewboxMask)"><rect fill="#c8f7dc" width="1744" height="1744" x="0" y="0" /><g transform="translate(531 487)"><path d="M554 727.7c-99.2 297-363.8 388.6-503.7 19.8-19.3-50.7 31-69.5 66.2-91.9 24.1-15.3 36.8-28.5 35.3-42.2-7-64.4-36.9-243.8-36.9-243.8l-3-5.8s.7-1.6-2.2 1.2c-3 3-9.9 34.2-37 34.2-24.5 0-49.2-10.9-61-86.3C7.2 285.6 9.6 214 40 201c12.5-5.3 24-7.2 35.2-.8 11.3 6.4-13-22 112-126C268.4 6.4 396.7-3.5 448.5 8 500.3 19.5 552 44.8 574.9 98.5c27.8 65-25.9 114.3-14 262.5-2.2 53.6.8 171.2-146.6 210.6-28 7.5-19.3 48.4 22.7 58.4 67 21 117 72.3 117 97.9" fill="#fff"/><path fill-rule="evenodd" clip-rule="evenodd" d="m554 266.2.1-1.4c4.1-36.4 8.2-71.7 27.1-103.4 6.5 4.4 5.7 10 3.7 15.2-19.9 51.2-18 104.4-16.2 157.6l.4 14c2.1 66.4-14.5 126.8-58.7 177.5-15.4 17.6-35.8 29.8-56.5 40.3-21.4 11-25.9 20.1-19.2 43.6l.8 2.6c1.4 3.9 2.8 7.9-1 11.8-4.5 4.6-9.5 3.3-14.8 1.8l-.6-.1a406.4 406.4 0 0 1-137-68.3c-6-4.4-10.8-10.3-15.5-16.1l-.3-.4c-2.5-3-3-7.8.5-10.4 3.3-2.5 5.8-.5 8.7 1.8l1 .9a145.5 145.5 0 0 0 76.3 31.7c13.4 1.4 26.6.9 40 .4 7.4-.3 14.8-.6 22.3-.5 10.2 0 18.7-4.7 26.7-9.2l2.8-1.6c27.8-15.5 54.3-32.8 72.2-60.7 16.1-25 25.9-52.2 31.6-80.9 7.2-36.1 6.6-72.7 6-109.8-.3-12-.5-24.2-.5-36.4ZM50.6 190.8c21.9-1.7 34 11.2 44.3 26.3a140.4 140.4 0 0 1 22.4 61.5c.5 3.7 1 7.6-1.2 11.3-4.5.6-4.9-3-5-5.6-.5-20.7-9.7-38.7-18.9-56.1-6.6-12.5-16.2-24.6-31.4-27.6-17.2-3.5-33 12-40.8 32.2-14.5 37.6-12 74.6 1.4 111 5.8 15.9 13.1 32.1 27.8 43.2 14.8 11.3 32.7 9.3 43.6-5.7l2-2.5c2-2.6 4-5.1 5-8 2.1-5.8 5.4-11.2 11.3-10.4 6.8 1 8 8.3 8.7 14a3661 3661 0 0 0 22 156.7l5.9 38.8c2.6 17.1 5.6 41.7 3.6 52.1a28 28 0 0 0-.3 2.2c-.4 2.8-.6 5-4.2 5.5-4.9.8-7-2-7.7-6.4-2.3-17-3-23.6-4-49.6-.9-25.2-5.6-50-10.4-74.9l-5-27c-5.2-30.8-10.3-62-10.8-97l-2 3c-7.6 11.3-13.7 20.5-24.5 24a40.5 40.5 0 0 1-46.1-12.5 127.8 127.8 0 0 1-28.8-55.8c-8.4-34-9.9-67.1.9-100.6 5.2-16.1 23.7-44.7 42.2-42Zm34.6 127.5c4.4 3.2 8.4 6 12-5.4-1.1-42.2-14.7-69.2-35.8-70.3 11.2 14.6 22 28.8 23 48.5a32.3 32.3 0 0 1-10.7-8.8c-2-2.2-4-4.4-6.5-6l-3-2.4c-4.8-3.6-9.7-7.4-17.8-4.5 3.8 5.8 9 10 14.3 14 6 4.7 12 9.3 15.6 16.5-10.6 7.7-15.2 17.7-9.7 29.9 4.8 10.5 11.9 19.2 25.9 19.8-.6-6.3-4.7-10.9-8.8-15.4-5-5.4-9.7-10.6-7.5-18.6 3.2-1.5 6.2.7 9 2.7Z" fill="#000"/></g><g transform="translate(178 1057)"><path d="m1351 688-1370-3.3s11.4-97 44.4-189.1c41.2-115.2 107.2-232 125-246.1 20.9-16.8-11.6-18.2 3.5-41.2 33.5-51.1 147-97.5 179.9-114.1 58.7-29.8 164.9-47.8 164.9-47.8l27.2 53.5s63.6 21.9 138.7 24.4C705 125.6 799 94.8 799 94.8L787.9 37s169.6 34.8 253.5 85.6c48.3 29.3 108.6 75 110 101.2 2.2 39.8 1.8 36.7 24.1 51.9 53.5 36.2 98.8 122 121.3 191.2C1314.4 521.1 1351 688 1351 688Z" fill="#fff"/><path d="m842 687-269 1s19-182.5-1.4-325c-6.2-44.2-32.6-224.4-32.6-224.4s73.7 24.7 131.4 24.7C733 163.3 798 131 798 131s24.3 69 29 182.4l15 373.6Z" fill="#000"/><path fill-rule="evenodd" clip-rule="evenodd" d="M301.5 563.4c20.5 40.6 41 81.3 56 124.6 6.6 0 12 0 17.7-1l-4.3-11a672.5 672.5 0 0 0-19.6-47.8 5876 5876 0 0 0-34.2-70.7c-9.4-19.2-18.8-38.3-28-57.5-3.8-8-6-16.9-1.3-25.8 6.7-12.8 12.6-26 18.4-39.2l5.2-11.8c11-24.4 24.5-47.6 38-70.9 10.6-18.1 21.2-36.3 30.6-55 8-16.3 5.6-24.5-12-30a48.4 48.4 0 0 0-10.5-2.3c-8.6-.7-17.2-1.2-25.9-1.7-26.4-1.5-52.9-3-78.6-10.8-8-2.4-16.3-3.7-24.6-5-8-1.3-16-2.6-23.8-4.9l-4.6-1.3c-14.8-4.2-30-8.6-41.4-20.3l1.7-2.4c1-1.3 1.8-2.5 2.8-3.5 25.5-28.7 59-47 92.3-65.1l20-11a963.1 963.1 0 0 1 62.6-31.4c7.9-3.7 15.8-7.4 23.7-11.3A394 394 0 0 1 423 71.5c10.6-3.1 21.4-5.6 32.2-8 7.8-1.9 15.6-3.7 23.3-5.7 20.1-5.3 23.8-4 29 15.7l9.1 34.2a2051 2051 0 0 1 26.8 106.6c8.7 40.7 14.4 82 17.2 123.5a1480 1480 0 0 0 6.8 70.7c3.7 32.2 7.3 64.3 8 96.7.5 20.8-.1 41.6-.8 62.4l-.8 29c-.3 13.5-1.8 26.9-3.3 40.2-2 17-4 34-3.3 51.2 6.7 0 12.2 0 17.8-1.2l.6-16.2c.2-10.2.5-20 1.6-29.6 5.7-51 4.8-102 3.7-153-.7-33.6-3.6-67-8.4-100.2a605.8 605.8 0 0 1-4.6-52.8c-1.3-23-2.6-46.1-7.3-69a1627 1627 0 0 1-6.7-34.2 906 906 0 0 0-13-61.8c-.2-1-.6-2-1-3-1.2-3-2.5-6 .6-8.9 4-3.8 9.1-2.7 14-1.4A373 373 0 0 0 690 167.3c31.6-2.4 62.8-5.8 91.8-19.5 8.7-4 15.5-1.5 17.4 9 1 5.6 1.7 11.2 2.4 16.9 1 7.9 2.1 15.8 3.8 23.4 7.8 34.8 10 70 12 105.2 1 16.1 2 32.2 3.5 48.3 1.1 12 2 24.2 2.8 36.3 1 14.6 2 29.1 3.6 43.7 6.3 60.7 4.7 121.5 2.7 182.3l-.7 20c-.7 18.4-1.4 36.7-1.4 55 5.8 0 10.4 0 15.4-1l.8-5.3c1-6.5 2-12.5 2-18.4l.3-44.7c.1-28 .3-56.2 1.6-84.2 1.7-37 .6-74-3.2-111-2.7-26.2-4.5-52.4-6.3-78.7-1.7-24.1-3.4-48.3-5.7-72.4-4.5-46-10.5-92-20.5-137.3a2499.2 2499.2 0 0 1-13.8-68.7c-.5-2.4-.4-5-.4-7.4v-4c-.3-6.4 2.7-8.5 9.1-7.2a642.2 642.2 0 0 1 79.2 18.8c21 6.9 41.7 15 62.3 23 7.3 3 14.7 5.8 22 8.6a446.7 446.7 0 0 1 141 84.8c13 11.7 24.1 25.1 31.8 40.6 4.5 9.3-.3 19.2-9.6 21l-9.2 1.9c-22.7 4.4-45.4 9-67.6 15.7a251.6 251.6 0 0 0-92.9 50.8c-7.6 6.6-8.7 14.7-4.5 23.2 4 8 8.4 16 13.2 23.6 5.8 9.2 11.7 18.4 17.7 27.5a705.7 705.7 0 0 1 42 70c3.2 6.5 4 13-.3 18-9.4 10.8-16.8 22.9-24.3 35a360.3 360.3 0 0 1-16.9 25.7 486 486 0 0 0-53.6 90.3c-3.6 7.9-6.6 16-9.7 24.2-4.8 13-9.7 25.8-16.5 37.7 7.5 0 14 0 20.6-1 10.7-33 23.5-64.2 41.5-93 23-37.1 47.5-73.3 72.3-109.3 6.3-9 9.7-18.8 3.8-31a589 589 0 0 0-27-48.5l-.4-.7c-13.9-23-28.7-45.6-43.7-68-4.7-7.2-2.2-12 3-16.8a158.1 158.1 0 0 1 41.7-26.7 355.4 355.4 0 0 1 102.9-29.7c12.8-1.7 22.3.7 32 7.6 34.6 24.3 64.6 51 82.6 90.3l8.7 18.7c12.8 27.6 25.6 55.2 35.5 84a1107 1107 0 0 1 41 147.4c5.8 25.6 11.6 51.2 18.2 76.7 4.9 0 8.6 0 12-1-5.3-21.6-9-43.3-12.8-65-4.7-27-9.4-54-17-80.4l-1.4-5.3c-6.6-23.2-13.2-46.4-21.1-69a882 882 0 0 0-52-121.3c-18.2-34.7-45.8-61.4-77.7-84.9-1.4-1-3.2-1.9-5-2.8-6-3.1-12.7-6.5-9.7-16.8 5.2-17.6 1.8-33.7-13.7-46.3a86.8 86.8 0 0 1-9.6-9.7l-3-3.3c-41.4-45.3-95.8-72.5-151.8-97-36.4-15.9-74.5-28.1-112.6-40-23.7-7.3-48-13.2-73-15-12.7-1-18 4.8-16.5 16.8.4 3 .8 6 1 9 .8 6.7 1.5 13.5 3.1 20 2.8 11.2-3.2 17.2-12 21.2-22 9.8-45.4 17.3-69.4 18.8-52.8 3.3-105.4.7-156-16.9-8.5-3-13.3-7.4-16.9-14.7-2.5-5-4.7-10.2-6.8-15.3a224 224 0 0 0-11-23c-5.4-9.6-11.8-11.8-21.6-8.6-6.4 2-12.8 3.7-19.3 5C434.6 50.4 399.3 59 366.5 75c-46 22.4-91.7 45.1-136 70.3-30.3 17.2-60 34.8-82.7 61.3-6.2 7.3-7.5 14.5-2.5 22.2 4.2 6.5 3.9 11.5-2 17a139.2 139.2 0 0 0-22.8 30c-1.8 2.8-3.5 5.7-5.4 8.5-21 32-39.7 65.2-56 99.5A873.4 873.4 0 0 0 26.7 463l-1 2.8c-7.9 22-15.7 43.9-21.3 66.5a925 925 0 0 1-5.6 21.5 563.4 563.4 0 0 0-8.8 35.3c-6.6 32.9-12.2 66-17 98.9 6.7 0 12.1 0 18-1l8-46c2-12.3 4-24.5 6.2-36.6 11-63 32.6-123 57-182a838.3 838.3 0 0 1 91-160.9c4-5.6 9-7.2 15.7-7.8 16.4-1.5 31.6 2.9 46.8 7.2 7.8 2.3 15.6 4.5 23.5 6l15.7 2.8c27 5 54 10 81.8 11.4 2.9.2 5.8.2 8.7.2 8.1 0 16.5 0 25.3 3l-8.4 13.6-23.8 38.6a729.7 729.7 0 0 0-50 95.6 948.5 948.5 0 0 1-18.2 39.1c-3.8 7.6-4.9 14.6-1.7 22l1.3 3c6 14 11.9 27.8 18.6 41.4l13 25.8Zm476.8-452c4.8-2.6 10.3-5.4 11.2 3.7 1.8 10.6-5.4 14.2-11.5 17.3l-1.8 1c-17.5 9.2-37 14-56.8 16.2a437 437 0 0 1-145.1-5.8c-9.6-2.2-18.8-5.6-27.4-10-5.6-2.7-8.1-6.8-6.8-12.5 1.5-6 5.5-5 9.5-4l2.4.6 19.4 3.8c16.5 3.3 33.1 6.6 49.9 9a293 293 0 0 0 103.8-2.9l1-.1c18-3.8 35.8-7.5 52.2-16.2Z" fill="#000"/><path d="M199 688c3-35 7-69.8 11.4-104.7 3.6-29.7 4-60 17.4-88 1-2.4 2.3-4.6 3.8-6.7 2.3-3.1 5-6.8 9.7-5.2 5.3 1.7 3.6 6.4 2.7 9.9-8 32.1-13.3 64.8-17.7 97.5-4.1 31.5-6.2 63.3-9.4 96-5.8 1.2-11.2 1.2-18 1.2ZM1149.9 688c-9.8-36.3-12.8-73.7-23.3-109.7-6.2-21-9.8-42.8-17.9-63.4-1.6-4.2-.5-9 4-11.2 4.4-2.3 7.4 1.3 9.9 4.3a55.4 55.4 0 0 1 9.9 22.1c11.5 43.4 20.8 87.4 27.6 131.7 1.2 8 1.2 16 1.9 25.2-3.5 1-7.3 1-12.1 1Z" fill="#000"/><path fill-rule="evenodd" clip-rule="evenodd" d="M797.4 536.7c2.5 2.7 5 5.4 6.9 8.6 2 4 2.8 10-1 13.3-2.5 1-5 0-7.2-1l-.7-.3a96 96 0 0 1-12.4-7 586 586 0 0 1-52.4-40.1 1501.4 1501.4 0 0 1-53-46.5c-10.3-9.3-20.6-18.7-30.8-28.2a281.8 281.8 0 0 1-14.7-15 30.6 30.6 0 0 1-6-8.4c-6.4-17.8 7.6-21.9 22.8-24.4 10.9-1.8 22-3 33-4.2h.8a57.7 57.7 0 0 0 13.7-2.8c1-.4 1-.5 1.3-1v-.3a68.3 68.3 0 0 0-9.4-18 610 610 0 0 0-44.6-55.6 7452 7452 0 0 0-19.3-22l-2-2.3c-4.7-5.2-9.4-10.4-6.5-17.8 1.4-4.6 5.8-2.4 8.7-.6a163 163 0 0 1 11.2 7.2h.1a971.7 971.7 0 0 1 37.6 27.2 589.2 589.2 0 0 1 74.4 64 592.2 592.2 0 0 1 24.6 21.4c2.9 2.7 5.7 5.3 7.7 8.6 3.5 5.7 2 13-4 16.5a71.5 71.5 0 0 1-24.3 6.5c-8.8 1.2-17.8 2-26.7 2.7l-8.5.7c-8.3.7-16.9 1.5-22.6 3.5-.8.3-1.6.7-2.3 1.2 1.4 2.6 2.1 3.6 3.4 5.3l2.5 3.4c11 14.4 23.7 27.5 36.3 40.6A7081.6 7081.6 0 0 1 751 489c10.9 11 21.8 22 32.6 33.2l1.5 1.6 11 11.4 1.4 1.4Zm-116.6-85.3 8 7.2c15.7 14.2 31.7 28.2 48 41.8a575.5 575.5 0 0 0 44.2 34.1l-24-24.3c-14.5-14.7-29-29.4-43.3-44.5-6.8-7.3-13.3-15-19.4-22.9-.6-1-1.3-1.8-2-2.7-2.2-3.2-4.6-6.5-6-10.1-2.8-6.7-2.8-17.4 5.7-20.2a64.4 64.4 0 0 1 16.8-2.6l15.8-1.3 14-1.1 2-.2c11-1 27-2.6 34.1-7.2-5-5.7-14-13.4-22.3-20.6l-10.6-9.3a3562 3562 0 0 1-27.4-24.7c-8.3-5.8-16.5-11.8-24.6-18a1554.7 1554.7 0 0 0-44-32.8c9.5 10.9 19 21.9 28.1 33.2l3.9 5c11 14 26.3 33.5 27.3 49.1.2 5.8-1.4 12.3-7.3 15.1-4.8 1.9-10 2.4-15 2.9l-5.3.6a488 488 0 0 0-32.7 4.5c-4 .7-7.2 1.4-11.2 3.7 7 8.7 30.7 30.3 47.2 45.3Z" fill="#fff"/></g><g transform="translate(266 207)"><path d="M800.8 351.8c-1.3-5.4-2-10.1-5.6-13.7-8.6 33 .4 28.8-36.4 29.5-54 1.2-108 3.8-161.3 12.5-16.2 2.6-25.3-2.3-26-21.8-12.3 11.1-12.8 24.7-18.8 35.3-16.7 30.1-37.2 57.5-69.2 72a62.7 62.7 0 0 1-58.5-4.8 213.4 213.4 0 0 1-47 88.7c-7.4-10.8-8.6-23.7-12.1-35.5-5.7-18.7-21-33.8-39-35.3-13.4-1.2-36 13.6-42.4 27.5-3.7 8-7.8 15.9-11.7 23.6-1.6-.2-3-.1-3-.4-8.2-26.8-26.5-50-31.6-77.3a154 154 0 0 1 13.7-101.7 340.8 340.8 0 0 1 103.5-121.7c40.5-29.2 85.6-48 133-61a579 579 0 0 1 171.8-19.1c29.2 1 57.7 7.5 86.1 15.3 24.7 6.7 48.6 14.9 70.8 27.7 37.9 21.9 66 52.4 82 93.7 11.6 29.8 9.5 59 1.8 89.7-9 35.5-27.6 64.2-52.2 90.2-9.6 10.2-12.6 23.7-15.8 36.8-1 4.1-.2 8.7-7 10.8-8.1-10.3-9-23.3-9.4-35.3-1.2-37.5-3.1-74.7-11.2-111.4-1-4.6-2.9-9-4.5-14.3Z" fill="#000"/></g><g transform="translate(791 871)"><path d="M125.4 111.5c-9.6-13-11.7-29.2-24.6-39.4-7-5.7-14.7-8-22.8-10.6-3.7-1.1-9.3-.7-9.3-6.7-.1-6.7 6-6.6 10-7.7 12-3 22 4 30.6 9.7a60.3 60.3 0 0 1 27 46.7c.6 6.5 1.2 15.8-11 8Z" fill="#000"/></g><g transform="translate(653 805)"><path d="M138.5 199.8c0-10 62.6 41.1 126.8 25 24.4-6.1 16.3-36.7 16.3-36.7l22.6-2.3s-3.3 28.5 5.3 32c36.5 14.4 81.5-48.4 84.9-33 5.5 25.1-19.6 60.3-28 74-12.3 19.6-35.4 40.6-51.2 43.4-82.2 14.9-176.7-72.5-176.7-102.4ZM219.4 134.6c-15.3 0-25-7-27.6-18.5-2.8-13.1 4.9-27.4 17.2-34 13-7 27.5-5.5 40-3.2 14.5 2.7 29.7 1.9 43.7 7a16 16 0 0 0 12.3-.2 39.3 39.3 0 0 1 17.6-2.7 296 296 0 0 0 42.8-.3c13.4-.9 22.2 7.5 26.1 22.6 2.5 9.3-3.8 23-13.3 28a33.6 33.6 0 0 1-34-.5c-6.8-3.7-12.9-6.4-21.4-2.9a20 20 0 0 1-19.6-2c-4.3-3.5-8.2-3.9-12.8-1.3-1.4.8-3.7 1.7-4.9 1-14.6-7-29.4-2.2-44.3-1.4-8.4.4-13 8-21.8 8.4Z" fill="#000"/></g><g transform="translate(901 668)"><path d="M65.7 43.5c-4.3 23.6-7.3 45.8-.3 68.8A79.4 79.4 0 0 0 98 157.1c22.3 14.8 22.7 43 .4 57.5-24.6 16.2-50.8 14-77 7.5-11.8-3-17.9-14.2-21-25.4-2.7-9.6 6.5-25.2 16.6-31 3.1 3.8 2.4 7 .2 11.3-6.7 12.3 0 31.4 13.5 32.6 19.8 1.7 40.7 5.8 59.1-8 12.5-9.4 14-21.5 1.8-31.4-7.3-5.9-14.4-11.7-20.6-18.8-28-31.7-29.9-68.2-20-107 3.5-14.3 9.2-27 19-38C73 3 76-.9 80.5 2c5.9 3.9 1.2 8.4-1 12-5.6 9-10.6 18.3-13.8 29.5Z" fill="#000"/></g><g transform="translate(610 680)"><path d="M419.6 111c-4.2-9.5-9.9-15.2-19.8-15.7-6-.3-7-5.1-8.9-9.8 2-1.5 3.5-3.7 5.3-3.8 21.1-1.7 42.4-1.8 63.5-.1 6 .4 9.3 8 3.2 10.4-10 4-12.5 13.2-18.5 19.8-8.2 9-15.2 9.1-24.8-.8ZM228.6 81.4c12.2.7 23.1 1 34 2 3.6.3 8 1.8 8 6.7 0 5.6-4.6 5.2-8.3 5.1-6.3 0-9.7 2.7-12.5 8.6-3.4 7.4-6.9 15.3-18 14.8-10.5-.5-15.1-7.2-18.1-15.2-2.2-5.7-5-8.4-11-8.2-3.4.1-7.1-.2-7.5-4.9-.4-5 3-6 7-7.2a67.9 67.9 0 0 1 26.4-1.7Z" fill="#000"/></g><g transform="translate(610 680)"></g><g transform="translate(774 657)"><path d="M53.5 37.6a79.2 79.2 0 0 0 27.3-19.8c2.7-3 6.1-5.7 9.9-5 6.7 1.1 16.2-1 18.8 7.5 2.1 7-5.2 10.5-10.3 14.4-13.8 10.5-28.2 19-46.6 16.7-4.6-.5-9.7.2-11-6.2 1.6-5.5 7.3-4.9 11.9-7.6ZM251.4 15c8.5-1.7 12.6 4.1 17.1 8.2 8.1 7.4 14.7 16.4 26 19.8 3.3 1 5.7 4 4 8-1.5 3.5-4 5.7-8 4.6-14.3-3.8-29.2-5.9-40.6-16.8-10-9.6-10.2-14 1.5-23.7Z" fill="#000"/></g><g transform="translate(0 559)"></g></g></svg>