<svg xmlns="http://www.w3.org/2000/svg" viewBox="0 0 1744 1744" fill="none" shape-rendering="auto"><metadata xmlns:rdf="http://www.w3.org/1999/02/22-rdf-syntax-ns#" xmlns:xsi="http://www.w3.org/2001/XMLSchema-instance" xmlns:dc="http://purl.org/dc/elements/1.1/" xmlns:dcterms="http://purl.org/dc/terms/"><rdf:RDF><rdf:Description><dc:title>Notionists</dc:title><dc:creator>Zoish</dc:creator><dc:source xsi:type="dcterms:URI">https://heyzoish.gumroad.com/l/notionists</dc:source><dcterms:license xsi:type="dcterms:URI">https://creativecommons.org/publicdomain/zero/1.0/</dcterms:license><dc:rights>Remix of „Notionists” (https://heyzoish.gumroad.com/l/notionists) by „Zoish”, licensed under „CC0 1.0” (https://creativecommons.org/publicdomain/zero/1.0/)</dc:rights></rdf:Description></rdf:RDF></metadata><mask id="viewboxMask"><rect width="1744" height="1744" rx="872" ry="872" x="0" y="0" fill="#fff" /></mask><g mask="url(#viewboxMask)"><rect fill="#ffd5dc" width="1744" height="1744" x="0" y="0" /><g transform="translate(531 487)"><path d="M554 727.7c-99.2 297-363.8 388.6-503.7 19.8-19.3-50.7 31-69.5 66.2-91.9 24.1-15.3 36.8-28.5 35.3-42.2-7-64.4-36.9-243.8-36.9-243.8l-3-5.8s.7-1.6-2.2 1.2c-3 3-9.9 34.2-37 34.2-24.5 0-49.2-10.9-61-86.3C7.2 285.6 9.6 214 40 201c12.5-5.3 24-7.2 35.2-.8 11.3 6.4-13-22 112-126C268.4 6.4 396.7-3.5 448.5 8 500.3 19.5 552 44.8 574.9 98.5c27.8 65-25.9 114.3-14 262.5-2.2 53.6.8 171.2-146.6 210.6-28 7.5-19.3 48.4 22.7 58.4 67 21 117 72.3 117 97.9" fill="#fff"/><path fill-rule="evenodd" clip-rule="evenodd" d="m554 266.2.1-1.4c4.1-36.4 8.2-71.7 27.1-103.4 6.5 4.4 5.7 10 3.7 15.2-19.9 51.2-18 104.4-16.2 157.6l.4 14c2.1 66.4-14.5 126.8-58.7 177.5-15.4 17.6-35.8 29.8-56.5 40.3-21.4 11-25.9 20.1-19.2 43.6l.8 2.6c1.4 3.9 2.8 7.9-1 11.8-4.5 4.6-9.5 3.3-14.8 1.8l-.6-.1a406.4 406.4 0 0 1-137-68.3c-6-4.4-10.8-10.3-15.5-16.1l-.3-.4c-2.5-3-3-7.8.5-10.4 3.3-2.5 5.8-.5 8.7 1.8l1 .9a145.5 145.5 0 0 0 76.3 31.7c13.4 1.4 26.6.9 40 .4 7.4-.3 14.8-.6 22.3-.5 10.2 0 18.7-4.7 26.7-9.2l2.8-1.6c27.8-15.5 54.3-32.8 72.2-60.7 16.1-25 25.9-52.2 31.6-80.9 7.2-36.1 6.6-72.7 6-109.8-.3-12-.5-24.2-.5-36.4ZM50.6 190.8c21.9-1.7 34 11.2 44.3 26.3a140.4 140.4 0 0 1 22.4 61.5c.5 3.7 1 7.6-1.2 11.3-4.5.6-4.9-3-5-5.6-.5-20.7-9.7-38.7-18.9-56.1-6.6-12.5-16.2-24.6-31.4-27.6-17.2-3.5-33 12-40.8 32.2-14.5 37.6-12 74.6 1.4 111 5.8 15.9 13.1 32.1 27.8 43.2 14.8 11.3 32.7 9.3 43.6-5.7l2-2.5c2-2.6 4-5.1 5-8 2.1-5.8 5.4-11.2 11.3-10.4 6.8 1 8 8.3 8.7 14a3661 3661 0 0 0 22 156.7l5.9 38.8c2.6 17.1 5.6 41.7 3.6 52.1a28 28 0 0 0-.3 2.2c-.4 2.8-.6 5-4.2 5.5-4.9.8-7-2-7.7-6.4-2.3-17-3-23.6-4-49.6-.9-25.2-5.6-50-10.4-74.9l-5-27c-5.2-30.8-10.3-62-10.8-97l-2 3c-7.6 11.3-13.7 20.5-24.5 24a40.5 40.5 0 0 1-46.1-12.5 127.8 127.8 0 0 1-28.8-55.8c-8.4-34-9.9-67.1.9-100.6 5.2-16.1 23.7-44.7 42.2-42Zm34.6 127.5c4.4 3.2 8.4 6 12-5.4-1.1-42.2-14.7-69.2-35.8-70.3 11.2 14.6 22 28.8 23 48.5a32.3 32.3 0 0 1-10.7-8.8c-2-2.2-4-4.4-6.5-6l-3-2.4c-4.8-3.6-9.7-7.4-17.8-4.5 3.8 5.8 9 10 14.3 14 6 4.7 12 9.3 15.6 16.5-10.6 7.7-15.2 17.7-9.7 29.9 4.8 10.5 11.9 19.2 25.9 19.8-.6-6.3-4.7-10.9-8.8-15.4-5-5.4-9.7-10.6-7.5-18.6 3.2-1.5 6.2.7 9 2.7Z" fill="#000"/></g><g transform="translate(178 1057)"><path d="M1304.4 692.5.7 689.2S34 479.5 96.9 360.3c73-138.7 173.6-266 400-320.3 9-2.1 96.1 44.3 128.4 60.3 15 7.4 77.1 2.9 77.1 2.9l110.8-54.9s130.4 42 196.6 79.3c84.2 47.3 179.2 187 223 296 46.6 115.8 71.6 269 71.6 269Z" fill="#fff"/><path fill-rule="evenodd" clip-rule="evenodd" d="M1280.6 615c5.5 25.8 11 51.7 17.5 77.5 4.6 0 8.1 0 11.3-.9a485 485 0 0 1-11.7-60.7c-2-13.1-4-26.2-6.6-39-6.2-30.4-13.2-60.5-22-90-10-33.6-21.4-67-35.3-99.3a734.6 734.6 0 0 0-48.2-97.8 834.7 834.7 0 0 0-89.3-119.8c-37.6-41.9-85.4-68.5-134.7-91.4a816 816 0 0 0-105.3-42.7c-25.6-7.8-52-12.4-79-12.2-6 0-9.3 3.6-5.5 7.6 8.2 8.6 2.4 11.8-3.3 14.9a101.8 101.8 0 0 0-8.9 5A203 203 0 0 1 731 81.2c-4.7 1.8-9.2 4.2-13.7 6.7-8.6 4.8-17.3 9.6-27.3 9.4-7-.1-13.9 0-20.8.3l-14.7.3c-7.2 0-14.3-1.2-21-3.8a247.8 247.8 0 0 1-37.6-18.9c-8.8-5-17.6-10.1-26.8-14.4l-11.6-5.3A298 298 0 0 1 503 26.1c-5.2-3.8-10.2-1.8-14.4.8-14.5 9-30.4 14.6-46.3 20.2-14 5-28 9.9-41 17-27.3 15-55.6 28.4-83.8 41.8-52.5 24.7-94.7 63.1-132.8 106.4-21 23.8-40 49.3-57 76.2a832.4 832.4 0 0 0-84 179l-1.2 3.5a703.8 703.8 0 0 0-20 65.8c-1.6 7.2-3.5 14.3-5.3 21.4-3 11.8-6 23.5-8.4 35.4-6.3 32.9-11.6 66-16.2 99 6.3 0 11.6 0 17.1-1.1 1.3-8.4 2.4-16.6 3.5-24.7 2.2-15.9 4.3-31.5 7.6-46.8l2.6-12.6c6.4-30.6 12.7-61.2 22.6-91 1-2.6 1.8-5.3 2.7-8 9.5-28.6 19-57.3 30.6-85.1a922.1 922.1 0 0 1 39.1-81.4 647.7 647.7 0 0 1 107-147.5c31.5-32.4 67.5-59 108.2-78.5 2.3-1 4.7-2.4 7-3.7 9.2-5.1 19-10.6 30-6.3 22.5 8.6 45 17.8 66.3 29 28.8 15 57.1 30.9 85.5 46.8 8.8 5 17.6 10 26.4 14.8l.5.3c19.8 11 19.8 11 32.4-7.6l.8-.3.5-.2c9.4 4 17.8 10 26.2 15.8 4.8 3.3 9.5 6.6 14.5 9.6 20.4 12.5 22.3 17.5 14.6 38.6-4.5 12.3-8.8 24.7-13.2 37-5.8 16.4-11.6 32.8-17.6 49a1075.7 1075.7 0 0 0-40 129.7c-5.2 22.2-.8 30.2 19.7 41 4.8 2.6 9.7 5 14.6 7.5l15.8 8.2c5.3 2.8 8.3 7 7.7 13.5-3.7 39.4-5 79-5.2 118.6 0 6.2-.7 12.4-1.4 18.6-.7 5.6-1.3 11.2-1.5 16.7h14.3c5.8-54.6 7.6-109.3 9.4-164.2.9-27.5 3-55 5-82.5 1.3-15.7 2.4-31.5 3.4-47.2.8-12 1-24.1 1.1-36.2.3-18.2.6-36.3 2.7-54.4 1.8-14.3 3.1-28.7 4.5-43.5l2-20.5c17 7 30.4.3 43.4-8 7.2 6 10.2 14 13 21.8l2.5 6.3c13.6 32.2 22.5 66 31 99.9 4.6 18 9 36 12.2 54.4l1.3 7.8v.4c6 34.9 12 69.8 16.2 105 3.7 32 5.8 64.3 8 96.5l2.3 35.5c.3 3.4.3 6.8.4 10.3.1 5.6.3 11.4 1.1 17.5 4.9 1.1 8.4 1.1 12.3 0 2.8-65.7-5-129.4-13.2-193.1l-1.7-12.6c-1-7.2-2-14.3-2.8-21.5a563 563 0 0 0-9.8-59c-2-8.8-4.5-17.6-7.1-26.4-3-9.9-5.8-19.8-7.9-30-3.7-18.8-10-36.7-16.3-54.6a322.5 322.5 0 0 0-28.3-62.2c-1.8-3-3.6-7.1.4-9 9.3-4 16.6-10.8 24-17.6 6.8-6.2 13.6-12.5 22-16.9l1.8 4.5c1.3 3 2.5 6 4 8.6 8.6 15.1 13 16 26.6 5.3 8.2-6.3 16.8-12 25.4-17.7 9.5-6.2 19-12.4 27.8-19.5 12-9.7 25.1-17.9 38.3-26a337 337 0 0 0 42.4-29.3c24-20.5 62 6.4 107.8 38.7l.6.5c43.4 30.6 76 72 106 115.2a791.5 791.5 0 0 1 55.8 96.5c16.7 33.2 31 67.5 42.6 102.7a1128.7 1128.7 0 0 1 39 147Zm-714-437c-2.2 3.9-4.2 6.2-8.8 4.3-22.7-10.9-44.4-23-66-35.2-34.7-19.6-69-38.9-106.3-51.6 0-5 2.4-6.2 4.5-7.2l.4-.1c13.1-6 25.8-12.9 38.1-20.5a42.4 42.4 0 0 1 22.9-6.9c20 0 40-.3 58-11 4.8-2.7 9.6-1.3 14.5 1.5l15.8 9.2c22 13 44.2 25.8 67.5 36.4 4.5 2 9 4.6 11.6 9.5a348.2 348.2 0 0 0-52.2 71.5Zm255.7-7.6c16-13.8 34-25 51.8-36.2 16-10 32-20 46.4-31.8-1.4-4.2-3.8-6-6.2-7.6a51 51 0 0 1-1.3-1C896.3 81 877 74 857.5 67c-6.5-2.4-13-4.7-19.4-7.3-9.2-3.7-20.4-7.7-31.9-1.3l-13.9 7.8a409 409 0 0 1-61.7 30.6c-6.6 2.4-7.4 5.6-3.2 11.4 4 5.5 7.7 11.1 11.4 16.8 4.5 6.6 8.9 13.2 13.6 19.6 8.2 11 16.7 22 25.2 32.7l10.8 13.8c11.5-6.8 22-13.1 33.9-20.6Zm-181.9-51.9c5.5-4.2 11.5-7.3 18.8-6.3 24.4-3.4 44 2 61.5 16.1 12 9.7 12.7 16.6 3.4 29-2.2 3-4 6.2-5.8 9.4-3 5.6-6 11-11.2 15-17.7-9.6-35.3-12-53.3-1.5-5.4 3.2-9.4 1.5-13.5-2.7a902 902 0 0 0-16.6-16.4l-7.8-7.6c-5.9-5.7-7.7-10.5 1-16 5.3-3.5 10-7.6 15-11.8 2.7-2.4 5.6-4.9 8.5-7.2Zm-24.3 389.3c3 1.7 6.3 3.4 11.2 3.4l2.3-57.7c2-50.4 4-100.7 7.8-151-4.7 10.1-8.4 20.5-12 30.8l-5.4 14.8c-16.1 42.3-28.5 85.8-39 129.7-1.6 6.5-1.4 12 5 15.3 7.9 4 15.8 8 25.5 12.6 1.6.5 3 1.3 4.6 2.1Zm58.5-321.3a27 27 0 0 1 16.3 1.6c13 12.7 14.7 22.7 6.6 32-11.1 13-28.1 16.9-39.4 9-8.6-6.1-10-15.4-7.3-24 3.4-11 13-16.5 23.8-18.6ZM633.1 204c10.3-1.3 5.3-8.7 2.8-11.1-9-8.8-18.3-17.1-28.4-26l-11.6-10.3c-.6 4.8-2.9 8-5 11.2a37.2 37.2 0 0 0-3.7 6l.2.2c15 10 29.7 19.6 45.7 30Zm94.5-25 4-4.8 2.7-4.6c2.6-4.5 4.8-8.3 8.4-11 12.5 12.3 12.5 16.8.5 26.2-1.2 1-2.4 1.8-3.7 2.7-2.8 2.1-5.7 4.2-8.1 6.8-3.6 3.7-7.1 7.2-12.7 9.2-5.3-4.4-4.7-8.8-.3-13.7 3.2-3.5 6.2-7.1 9.2-10.8Z" fill="#000"/><path d="M1113.7 692.5c-9.3-36.8-12.3-74.6-22.4-111-7.7-28-14-56.7-24-84-7.1-19.3-14-39-23.4-57.6-12.7-25-23.3-51.2-34.6-77-1.3-2.9-3-6.3 1.2-8.9 4.5-2.6 7.6-.4 10 2.8 4 5.4 8.5 10.8 11.3 16.8 9.4 20.3 19.2 40.5 28.9 60.6a612.4 612.4 0 0 1 34 95.6 617.4 617.4 0 0 1 21.8 96.4c2.7 21.4 7.2 42.7 8.8 65.3-3.4 1-7 1-11.6 1ZM210 692.5c1.5-7.9.6-16 .7-24a883 883 0 0 1 12.2-121.6c5.8-37.7 14-75 24.6-111.6A264 264 0 0 1 282 362c2-3 4.3-5.8 8.2-3.7 3.5 2 3.6 5.5 2.3 9-3.2 8-5.8 16-9.6 23.7-18.5 36.7-26.2 76.5-35 116.2-4.5 19.7-10.2 39.2-13.9 59.2a265.4 265.4 0 0 0-5.9 53c.5 24-5 47.4-3.7 72.2-4.5 1-8.8 1-14.3 1Z" fill="#000"/></g><g transform="translate(266 207)"><path d="M411.2 302c10.3 9.5 20.8 17.4 27.7 29 12 20-3.7 57-22.3 70.1a645.4 645.4 0 0 0-31.4 23.7c-7.5 6-13 5.4-19.7-1.6a231.2 231.2 0 0 1-44.3-69.2 416 416 0 0 1-28.4-84.1 56.9 56.9 0 0 1 .1-27.8c3.7-12.4 10.8-15.7 22.1-9.7 35 18.6 67.4 40.8 96.2 69.5ZM793.3 286.7c-2.2 7.5-4.7 13.9-5.8 20.5-4.1 24.7-12 30.7-34.2 21a164.5 164.5 0 0 1-51.9-33.4c-18.4-18.4-16.3-21.8-3.7-45.4 16-30 42.1-51.6 65.2-75.8 12-12.5 24-25.1 38.5-34.8 5.7-3.7 12.8-9.8 19.7-5.3 7.6 4.9 6.6 13.6 5.1 22a612 612 0 0 1-19.4 84c-4.8 15-11.7 30-13.5 47.2ZM572.4 197.1a740.6 740.6 0 0 1 28.5-99.7c.7-2 .7-4.6 2-5.9 5.9-5.8 7.8-17 17.7-16.8 10.1.2 10.9 11 14 17.9 12 27.3 15.8 57 21.2 86 4.6 24.9 9.9 49.8 11.1 75.4.6 12-2.6 18.7-16 20.6-16.3 2.4-31.7 9.3-48.6 9.2-10.6 0-21-2.7-30.3-7.8-12.5-6.6-15.5-16.4-12.8-28.6 3.7-16.6 8.5-32.9 13.2-50.3ZM442.4 255c-5.3-41.5-15-81.4-12.9-122.6.3-5.6 0-11.7 6.8-13.6 6-1.8 11.6-.7 16.2 4.4 18.4 21 35.4 43.3 50.7 66.7 11.6 17.7 23.4 35.3 33.2 54.2 11.2 21.6 10.3 35.5-6 52a75.4 75.4 0 0 1-44.6 22c-28 3.8-32.4-10.6-37.6-32.2-2.4-9.6-3.8-20-5.8-31ZM367.3 485.3c-.3 6.9 1 12.8-1.7 18.5-15.3-9-27.2-22.9-46.2-20.4-2.5.3-5.6-.3-7.5.9-12.7 7.9-20.2-.1-26.7-8.9a370 370 0 0 1-50.2-87.8c-2.5-6.5-5.4-14 .5-19s13.2-2.2 20.3.5a332.7 332.7 0 0 1 78 44.6c10.8 8 21.9 16 31.2 25.6a24.8 24.8 0 0 1 6 25c-2 6.5-4 13-3.7 21ZM873.4 357c-5.2 11.8-12.9 20.9-20.1 30.2-7 9-15 9.2-23 2-13.3-12-23.2-26.9-30.5-43.1-4.2-9.3-2.7-19.6 5.4-25.8 25.4-19.3 46.4-43.5 72-62.5 12.5-9.3 24.7-19.2 38.7-26.3 4.1-2.1 8.6-4.5 13-.4 4.3 3.9 3.2 8.7 1.2 13-12 25-24 50.2-36.4 75.2-6.2 12.5-13.2 24.7-20.3 37.7Z" fill="#000"/></g><g transform="translate(791 871)"><path d="M79.1 76.2c7.7-15.2-6-20-13-28.8-12 28.2-9.2 55.9 6.1 65 1.2-11.6-.3-23.8 7-36.2Z" fill="#fff"/><path fill-rule="evenodd" clip-rule="evenodd" d="M88.8 107v-9.7c1-2 1.5-4.2 1.9-6.2.7-3.4 1.3-6.5 4.3-8.8 4.5-.1 8.3 1.9 12.1 4 3.3 1.6 6.6 3.4 10.3 3.8h1c3 .5 6.3.9 7.8-3 1.6-4.1.2-7.7-3.8-9.5C103.6 69 91.2 53.7 78.9 38c-8.4-10.9-20.8-8.3-28.4 3.9-11.2 18-8.4 37.6-5.8 56l.1 1c2 13.6 9.3 27.7 24.9 33.3 11.4 4 18.4-.2 19-12.2l.1-13ZM72.2 53.5c6.5 5.8 12.6 11.3 7 22.7-5.5 9.4-6 18.7-6.4 27.7a152 152 0 0 1-.6 8.5c-15.3-9.1-18.2-36.8-6.1-65 1.8 2.2 4 4.2 6.1 6.1Z" fill="#000"/></g><g transform="translate(653 805)"></g><g transform="translate(901 668)"><path d="M76.7 82.4a205.6 205.6 0 0 0 3.3 80.2c4.7 22.4-15.2 54.4-46.8 49.7-11-1.6-17.5-8.1-21.3-17.8-1.7-4.3-1.5-8.8 3.3-11 4-1.7 7.4-.2 9.4 4 4.8 10.1 13.4 9.4 21.9 6.9 9.6-2.9 16.4-9.6 17.1-19.9.7-10.1.2-20.3-1.6-30.4a159.3 159.3 0 0 1 8.8-89.5c2.2-5.7 5.4-10.9 11.9-8.3 7.5 3 1.8 8.8.7 13.1-1.7 7.4-4.2 14.7-6.7 23Z" fill="#000"/></g><g transform="translate(610 680)"><path d="M215.1 76.6c5-12 9-29.4 24.1-22.5 20.7 9.4 13.9 30.7 9.7 47.4-1.6 6.3-14.5 15.9-18.3 14.3-16.3-6.8-19.2-21.7-15.5-39.2ZM442 113.4c-8.6 7.5-17 7.6-22.2-1.5-9-16-8.6-32.8 3.3-47.2 2.5-3 13.8-3.6 16.3-1 14 15 14.6 31.8 2.6 49.7Z" fill="#000"/></g><g transform="translate(610 680)"><path d="M266 18.1A80.2 80.2 0 0 1 301 62.8c15.8-3 30.7-5.8 46.4 2.2a97.5 97.5 0 0 1 19.8-34.7C382.8 14 418 2 443.5 10.5c26.2 8.8 44.9 26.2 52.7 51.2a75.5 75.5 0 0 1-11.3 67.8c-35.8 51-110.3 37.5-132.4-14-3.6-8.2-5.7-16.9-6.3-25.8-.6-10.5-5.3-15.8-15-17.3-11.9-1.8-21.2 1.8-25.4 13.9-3.3 9.1-3.2 19-7.4 28.2-13.3 29-37.9 47.4-71.8 47.1-28.5-.2-61.4-18-69-48.8-8.4-34-35.5-41.3-62.4-50.6-22.8-7.9-45.5-16-68.2-24-4.7-1.7-7.3-5.4-5.5-10 2.2-5.7 6.8-3.4 10.8-2C66.4 38.8 100.7 51 134.7 63.8c11.8 4.4 18.5-3.2 22.6-10.7 23.3-42.4 58.4-55.5 103-37.2 1.7.6 3.3 1.2 5.7 2.3Z" fill="#000"/></g><g transform="translate(774 657)"><path d="M131.2 43.2c-5.6 16.8-6.6 15.4-23 11.6-26.2-6-52.7-19.2-80.3-4.3-2 1.1-5 1-7.6.8-3.6-.2-8.2 1.3-10.1-3.3-2.1-5 1.5-8.3 5.3-10.3C35.2 27.7 53 13.4 77.9 16c12.8 1.3 26-2.8 39.3-2.4 18.8.7 22.4 5.7 16 23.9l-2 5.8ZM298.7 21.8c9.6 6.6 12.5 16.8 18.3 25a7 7 0 0 1-.6 9.4c-2.4 2.7-5.4 2.8-8.1 1.2-19.1-11-38.9-6.4-58-1.2-10.2 2.7-14.6-.8-17.2-9.2-1.7-5.7-2.9-11.5-3.6-17.4-1.3-9.8 6.9-11.9 13-12.2 18.5-.9 37.4-4.5 56.2 4.4Z" fill="#000"/></g><g transform="translate(0 559)"></g></g></svg>