<svg xmlns="http://www.w3.org/2000/svg" viewBox="0 0 1744 1744" fill="none" shape-rendering="auto"><metadata xmlns:rdf="http://www.w3.org/1999/02/22-rdf-syntax-ns#" xmlns:xsi="http://www.w3.org/2001/XMLSchema-instance" xmlns:dc="http://purl.org/dc/elements/1.1/" xmlns:dcterms="http://purl.org/dc/terms/"><rdf:RDF><rdf:Description><dc:title>Notionists</dc:title><dc:creator>Zoish</dc:creator><dc:source xsi:type="dcterms:URI">https://heyzoish.gumroad.com/l/notionists</dc:source><dcterms:license xsi:type="dcterms:URI">https://creativecommons.org/publicdomain/zero/1.0/</dcterms:license><dc:rights>Remix of „Notionists” (https://heyzoish.gumroad.com/l/notionists) by „Zoish”, licensed under „CC0 1.0” (https://creativecommons.org/publicdomain/zero/1.0/)</dc:rights></rdf:Description></rdf:RDF></metadata><mask id="viewboxMask"><rect width="1744" height="1744" rx="872" ry="872" x="0" y="0" fill="#fff" /></mask><g mask="url(#viewboxMask)"><rect fill="#ffd5dc" width="1744" height="1744" x="0" y="0" /><g transform="translate(531 487)"><path d="M554 727.7c-99.2 297-363.8 388.6-503.7 19.8-19.3-50.7 31-69.5 66.2-91.9 24.1-15.3 36.8-28.5 35.3-42.2-7-64.4-36.9-243.8-36.9-243.8l-3-5.8s.7-1.6-2.2 1.2c-3 3-9.9 34.2-37 34.2-24.5 0-49.2-10.9-61-86.3C7.2 285.6 9.6 214 40 201c12.5-5.3 24-7.2 35.2-.8 11.3 6.4-13-22 112-126C268.4 6.4 396.7-3.5 448.5 8 500.3 19.5 552 44.8 574.9 98.5c27.8 65-25.9 114.3-14 262.5-2.2 53.6.8 171.2-146.6 210.6-28 7.5-19.3 48.4 22.7 58.4 67 21 117 72.3 117 97.9" fill="#fff"/><path fill-rule="evenodd" clip-rule="evenodd" d="m554 266.2.1-1.4c4.1-36.4 8.2-71.7 27.1-103.4 6.5 4.4 5.7 10 3.7 15.2-19.9 51.2-18 104.4-16.2 157.6l.4 14c2.1 66.4-14.5 126.8-58.7 177.5-15.4 17.6-35.8 29.8-56.5 40.3-21.4 11-25.9 20.1-19.2 43.6l.8 2.6c1.4 3.9 2.8 7.9-1 11.8-4.5 4.6-9.5 3.3-14.8 1.8l-.6-.1a406.4 406.4 0 0 1-137-68.3c-6-4.4-10.8-10.3-15.5-16.1l-.3-.4c-2.5-3-3-7.8.5-10.4 3.3-2.5 5.8-.5 8.7 1.8l1 .9a145.5 145.5 0 0 0 76.3 31.7c13.4 1.4 26.6.9 40 .4 7.4-.3 14.8-.6 22.3-.5 10.2 0 18.7-4.7 26.7-9.2l2.8-1.6c27.8-15.5 54.3-32.8 72.2-60.7 16.1-25 25.9-52.2 31.6-80.9 7.2-36.1 6.6-72.7 6-109.8-.3-12-.5-24.2-.5-36.4ZM50.6 190.8c21.9-1.7 34 11.2 44.3 26.3a140.4 140.4 0 0 1 22.4 61.5c.5 3.7 1 7.6-1.2 11.3-4.5.6-4.9-3-5-5.6-.5-20.7-9.7-38.7-18.9-56.1-6.6-12.5-16.2-24.6-31.4-27.6-17.2-3.5-33 12-40.8 32.2-14.5 37.6-12 74.6 1.4 111 5.8 15.9 13.1 32.1 27.8 43.2 14.8 11.3 32.7 9.3 43.6-5.7l2-2.5c2-2.6 4-5.1 5-8 2.1-5.8 5.4-11.2 11.3-10.4 6.8 1 8 8.3 8.7 14a3661 3661 0 0 0 22 156.7l5.9 38.8c2.6 17.1 5.6 41.7 3.6 52.1a28 28 0 0 0-.3 2.2c-.4 2.8-.6 5-4.2 5.5-4.9.8-7-2-7.7-6.4-2.3-17-3-23.6-4-49.6-.9-25.2-5.6-50-10.4-74.9l-5-27c-5.2-30.8-10.3-62-10.8-97l-2 3c-7.6 11.3-13.7 20.5-24.5 24a40.5 40.5 0 0 1-46.1-12.5 127.8 127.8 0 0 1-28.8-55.8c-8.4-34-9.9-67.1.9-100.6 5.2-16.1 23.7-44.7 42.2-42Zm34.6 127.5c4.4 3.2 8.4 6 12-5.4-1.1-42.2-14.7-69.2-35.8-70.3 11.2 14.6 22 28.8 23 48.5a32.3 32.3 0 0 1-10.7-8.8c-2-2.2-4-4.4-6.5-6l-3-2.4c-4.8-3.6-9.7-7.4-17.8-4.5 3.8 5.8 9 10 14.3 14 6 4.7 12 9.3 15.6 16.5-10.6 7.7-15.2 17.7-9.7 29.9 4.8 10.5 11.9 19.2 25.9 19.8-.6-6.3-4.7-10.9-8.8-15.4-5-5.4-9.7-10.6-7.5-18.6 3.2-1.5 6.2.7 9 2.7Z" fill="#000"/></g><g transform="translate(178 1057)"><path d="M1292.6 693H83.3l8.6-63.3S14.2 603.3 6.5 588c-7.8-15.3 84.2-214.1 96.8-245.6C116 310.8 200.1 188 239 168.3a3409.1 3409.1 0 0 1 147-69.7c4.8-2.1 7.2-3 14.8-16.1 7.7-13 33.6-18.8 43-26.5 4.3-3.5 14.6-31.5 35.3-28a32.4 32.4 0 0 1 26.2 19.6s11.8 99.2 188.1 84.7c52.6-4.2 156-39 160.7-77.4 2.2-18.4-11.5-32-11.5-32s53-8.9 77.1 5c24.1 14 14.8 52 14.8 52s83.3 47 110.1 72.8C1090 196.4 1184 303.9 1225 404.5c23.1 57 77.8 160.3 85.9 173.4 8.1 13-27 36-27 36l8.8 79Z" fill="#fff"/><path fill-rule="evenodd" clip-rule="evenodd" d="M952.9 98.7a688.9 688.9 0 0 1 108.5 79.4c1.2 1 58 53.1 111.2 143.2C1226.1 412 1276 540.7 1276 540.7c10.1 26.7-34.4 57-63 73.5-50.6 29.1-78.5 51.8-75.3 51.1 30-5.9 75.6-29.2 102.5-45a98 98 0 0 1 18.8-7.7c3.2-1 6.4-2.1 9.7-3.4l2.5 9.4c4 14 7.6 27.5 7.8 42v3.7c0 9 0 18 3.7 27.7 5.2 1 9 1 13.1 0l-.2-2c-2-20.2-4-39.4-6.8-58.5-.9-6.2 0-10.3 5.2-12 5.7-2 10.1-6 14.5-10 2.3-2.2 4.5-4.3 7-6 9.8-7.2 10.9-16.9 4.5-26.1-8-11.8-13.7-24.9-19.5-38-2.1-5-4.3-10-6.7-15l-8.8-18.9c-23.3-50-50-107-69.5-140.9-28.7-49.7-87.5-149.1-151.5-203.5l-1.8-1.5c-29.2-24.9-76.7-65.3-121.5-85.2l-.2-8.4c-.1-6.1-.3-12 .3-17.7a26 26 0 0 0-10.4-24 53.8 53.8 0 0 0-31.2-13.2c-14.7-.6-33.4.5-52.4 1.5-24 1.4-48.5 2.8-67 1-11.3-1.1-12.8 2.2-9.6 15-10.5 8.5-10.3 12.7 1 19 3 1.6 6.3 2.7 9.6 3.2 10 1.5 35.5.7 49 .3l4.8-.2h1.7c3.8-.3 7.9-.6 10.4 4.8A93.8 93.8 0 0 1 829 76.8c-36.1 29.9-77.7 41.6-121.2 47.2-31.6 4-63 3.8-94.6-2-32.7-6-62.2-18.1-87.7-42.4-1.3-1.2-4.2-3.3-7.6-5.8-9.1-6.6-22.5-16.3-24-22.9 26.7-24.2-23.2-43.7-42.2-16.8-7.6 10.8-16.3 21.4-30 25.5-10.8 3.2-22 8.7-27.3 22.3-.8 2-3.4 3.3-5.4 4.2-6.5 3-13 6.2-19.4 9.3-17.3 8.3-34.6 16.6-52.2 24a751.6 751.6 0 0 0-65.3 32.3l-2.5 1.4a256.6 256.6 0 0 0-85.2 75.6C130 275.3 103.4 327 80 381.3c-13 30-26.5 60-40 89.8l-2 4.2c-2.3 5.3-4.7 10.4-7.2 15.6-11.7 25.3-23.5 50.6-28.7 78.8-3.8 20.3-4.5 34.6 16.3 48.9 16.6 11.3 32.8 22.5 52 26.7 8.8 2 10.9 8 9.5 16.6l-1.6 9.2c-1.3 7.3-2.6 14.6-3.3 21.9H90c.6-15.6 4.1-30.6 8-47l3.6-15.7c19 9.4 38.5 17.3 57.9 25 27 11 54.2 22 80.5 37.2 9.7.6 19.3.5 29-.4l-.4-.7c-.7-1.5-1.2-2.7-2-3-13.5-6.1-26.5-13.5-39.4-21a460.4 460.4 0 0 0-39-20.6c-9.8-4.4-19.4-9.1-29-13.8a555 555 0 0 0-50.1-22.6c-9-3.4-18.2-5.7-27.5-8a350.4 350.4 0 0 1-57-18.7c-8-3.3-11.1-8.7-7.4-19.6 6-17.8 13-35.2 20.3-52.4 8.7-20.3 17.9-40.4 27-60.5L75 428l12.9-28.4c8.1-17.9 16.3-35.7 24.3-53.7 12.7-28.7 29-54.9 45.2-81l1.7-2.8c26.7-43 60.8-75.8 104.3-95.7 13.3-6 26.4-12.6 39.6-19a2169.7 2169.7 0 0 1 37.7-18.5c13.2-6.6 26.4-13.3 40.8-14.9 22.7-2.4 47.6.5 57 32.2a19 19 0 0 0 2.9 5l1.5 2.4c12.6 21.4 31.1 33.6 51 44.6 34.8 19 70.6 28.1 109 20 10.5-2.3 14 .8 14.3 12.7l-.1 6.3c-.2 5.1-.5 10.2 1.4 15.1 8.8 23.2 10.8 45.9-2.7 68-1 1.5-1.6 3.3-2.2 5.2l-1 2.9-.4 1c-1.3 3.2-2.7 6.7.4 9.4 3.7 3.3 7 1 10-2.1 13.8-14 21.4-52.8 13.8-72A63 63 0 0 1 632 244c-.3-7.8.6-12.3 9-13.9a26.5 26.5 0 0 0 22.2-24c1.2-15.9 8-15.5 18.2-13 2.3 14.7 5.4 30.8 20.2 33.3 11.5 2 18.1 9.3 25.3 17l1.5 1.8c2.1 2.3 4.6 4.2 7.4 5.4 12.7 5 19.3 14 17.4 29.8-.3 2.3-.2 4.7-.1 7 0 2.4.2 4.8-.1 7-2.9 22.6 8.8 34.7 21 47.2 3.1 3.3 6.3 6.6 9.3 10.2 5.7-10.4.9-16.7-4-21.4-12.3-12-16-26.1-13.7-44.3 2.3-18-.8-35-17-44.8-2-1.2-3.9-2.4-5.7-3.7a107.8 107.8 0 0 0-9.2-5.5c-3.6-2-7.5-4-6.2-9 1.4-5.8 5.7-7 11.7-6.3a130 130 0 0 0 57-5 257.2 257.2 0 0 0 52.2-23.2c23.2-14.6 44.6-30.3 61-54.5l5.5-8.8c5.5-8.8 11-17.8 19.2-23.9 6-4.4 11.3-6.9 18.7-2.6ZM425.9 78l2-.5c11-1.6 15-7.8 19.4-15.1 1.7-2.8 3.6-5.8 6-8.7 1.4-2 3-4.4 4.5-7 3.8-6.5 8.2-13.8 15-16 13-4.5 19.2 9.1 14 12.6-14 9.3 25.4 55.2 54.3 69.7 59.4 30 111.8 32 169.7 26.8 43.6-3.9 85.6-18.3 122-46.8 15-11.7 30.4-25.8 26.7-51.5-1.1-8 4.6-10 9.7-6.8 11.3 7.5 21.2 7.6 32.4-1 7-5.5 11.8-.5 16.6 4.4 1.9 2 3.7 4 5.7 5.2 6 3.8 4.6 11 3.3 17.4l-.3 1.2c-11.9 59.2-48.6 94.9-94 119.9-23 12.7-49 18-74.9 21.6-11.5 1.6-17.4-2.7-15.2-17.5 7-5.2 15.2-7.3 23.5-9.5 5.5-1.4 11-2.9 16.3-5.3 13.8-6.2 26-15.2 38.3-24.1 4.4-3.2 8.7-6.4 13.2-9.4a214 214 0 0 1 9.7-6.3c7.2-4.4 14.5-8.9 20.6-15.2l3-3a53 53 0 0 0 4.6-4.6c2.9-3.5 5.8-7.9 2.4-12.4-3.2-4.3-5.7-2-8.1.4l-2.2 2c-5.7 4-11.3 8.1-17 12.3a543.8 543.8 0 0 1-66 43.6c-25.7 13.5-54 18.6-82.2 20.3-27 1.6-53.9.3-81-6-18.1-4.4-36.7-8.5-55.1-12.4-14.9-3-27-13.7-38.8-24a633 633 0 0 0-8.3-7.5c-4-3.8-8.2-8-12.4-2.2-4.5 6-.2 10.3 4 14.3l2.8 3c23.6 27.3 54.5 33.5 85.3 39.8l10.4 2 3 .8 1.3.4c-4.6 19.3-5.2 19.3-21.1 20.4h-.7C558 205.7 529 200.6 502 185c-21.2-12.2-41.5-26.2-48.7-54.7-5.2-20.7-19.3-30-35.8-36.7l-1.4-.4c-1.7-.5-3.4-1-4.6-3.8 2.1-8 8.3-9.6 14.5-11.2Z" fill="#000"/></g><g transform="translate(266 207)"><path d="M906.2 370.6c6 27.1 12 53.2 10.8 80.4-1.2 29 5 57.4 8.2 86.1 3.8 33 13 66.4 2 99.7-6.2 18.6-18.2 33-37.9 46.3V624c-3.7 40.6-8 79.4-51.3 100.5-8.2-12.8-4-25.7-4.1-37.4-.6-46.9-9.8-93-10.5-139.8-.4-21.5 3.2-42.4 8-63.1.1-.9.6-1.6.8-2.4 2.3-12 2.4-20.8-11.5-29a260.2 260.2 0 0 1-90.9-90c-50.7 35.8-106 49.9-166.4 37-15.4 30.1-38.6 52.4-62 74.8a654.1 654.1 0 0 1-83.8 66.4c-5.5 3.7-11.3 8.5-12.2 15.8-1 8.3-6.4 10.9-13.2 10.6-7.2-.2-12.5-3.5-14.7-11.5-4.6-16.4-10.3-32.4-15-48.7-3.9-13-13-21.6-22.8-29.7-11.4-9.5-33.5-4.9-44.4 9a91 91 0 0 0-17.7 45.6 172.3 172.3 0 0 0 29.6 123.4c21.5 30.5 43 20.4 59.5-4 3.8-5.4 6.6-11.5 12.8-15.5 7 5.3 7 12.7 7.2 19.6.8 18.3-.6 36.6 2.2 54.9 1.3 8 2 17.7-11 18.9-20.7 1.8-26.1-1-28.2-16-.6-4-.5-8.3-.7-12.8-.7.8-1.6 1.4-1.8 2-4.8 23-15.6 27.4-43.4 16.8-7.2-2.7-13.8-6.6-20.8-9.8-6.5-3-7.3-8.8-8-15-.6-5.7 1.4-11.7-1.7-18.2-3.3 5.7.9 14.1-7 16.5-7.8 2.4-12.9-3.5-18.3-7.3a70 70 0 0 1-20.9-25.2c-20.2-37-35.5-75.6-33.6-118.5 1.4-32.8 11-63 34.5-87.9 15.1-16 25.5-36 29.8-57.6C271.9 328.5 314.3 284 375 253.6c37.8-18.9 78.5-32.4 113.6-56.2 26.6-18.1 54.2-33.8 84.7-43C624.2 139.4 674.5 138 725 160c39.5 17.1 62 46.7 75.7 85.1 2.2 6.2 5.7 9.3 11 11 49 16.4 72.2 55.6 89 100.5 1.5 4.4 3.4 8.7 5.4 14Z" fill="#000"/></g><g transform="translate(791 871)"><path d="M80.7 65.4c-1.1-4.6-2.8-8.8 2-10.8C86.7 53 90 55 93 58a76 76 0 0 0 34.4 21c27 6.7 51-.5 71.2-19.9 3.4-3.2 6.7-6.5 10.2-9.5 2.4-2 5.1-3.2 8-.7 3 2.7 1.5 5.4-.1 8-13.6 21.4-31.7 35.8-58.1 37-8 .3-16.1 1-24.1.8-22.4-.6-38-14.3-53.8-29.3ZM49.3 54.5c.4-15.5 8-25.4 19.7-33 4.7-3 9.4-4 14.5-2.7 3.3 1 6.5 2.7 7 6.6.7 4.3-2.4 5.6-6 6.8a30.5 30.5 0 0 0-21.4 22.9c-1 4.3-2 9-7 9.4-5.9.6-5.2-5.4-6.8-10ZM230.4 35c0-8.8 5.4-7.4 9.7-6 7.2 2.3 16 18.6 14.7 26.5-.4 2.5-.4 5.3-3.3 6.4-3.4 1.3-5.8-.4-7.5-3.1a710 710 0 0 1-13.6-23.9Z" fill="#000"/></g><g transform="translate(653 805)"></g><g transform="translate(901 668)"><path d="M99.8 182.6c-8.7 16.5-33.4 25.7-48.5 18.9-4.3-2-6.2-5.8-7-10-.5-2.7.9-5.3 3.3-6.5 4.6-2 5.8 2.3 8.6 4.8 7 6 13 .7 19-3.4 5.8-4 9.1-8.5 4.3-14.7-10.5-13.1-14.8-29.2-21.8-44-3.1-6.5-5-13.5-3.8-21 .5-3.3 1.9-5.5 5.6-5.6 2.8 0 5 .8 5.9 3.8 7.5 26.3 23.3 48.6 34.6 73.1.5 1 0 2.5-.2 4.6Z" fill="#000"/></g><g transform="translate(610 680)"><path d="M407.4 122.5c13 .3 25.4 1.1 37.6 2.5 3 .4 5 3.3 5 6.7 0 3.3-1.7 5.6-4.7 7-11.2 4.8-22 8.2-33.7.2-6.5-4.5-9-8.7-4.2-16.4ZM251.2 124c6.4 2.8 5.6 6.6 3 10.6-5.9 8.6-27.3 12.5-36 6.6-5-3.4-8-8-5.6-14 2.5-6.2 7.7-5.6 12.8-3.6 8.3 3.3 16.5 1.7 25.8.4ZM419.6 111c-4.2-9.5-9.9-15.2-19.8-15.7-6-.3-7-5.1-8.9-9.8 2-1.5 3.5-3.7 5.3-3.8 21.1-1.7 42.4-1.8 63.5-.1 6 .4 9.3 8 3.2 10.4-10 4-12.5 13.2-18.5 19.8-8.2 9-15.2 9.1-24.8-.8ZM229.6 81.1c12.2.7 23.1 1 34 2 3.6.3 8 1.8 8 6.7 0 5.6-4.6 5.2-8.3 5.1-6.3 0-9.7 2.7-12.5 8.6-3.4 7.4-6.9 15.3-18 14.8-10.5-.6-15.1-7.2-18.2-15.2-2-5.7-4.9-8.4-10.9-8.2-3.4.1-7.1-.2-7.5-4.9-.4-5 3-6 7-7.2a67.7 67.7 0 0 1 26.4-1.7Z" fill="#000"/></g><g transform="translate(610 680)"></g><g transform="translate(774 657)"><path d="M104.9 38.7C82.4 47 60.2 43 38.3 43c-3 0-6.3-2.2-9.2-4-2.7-1.5-4.4-4-3-7.4 1.5-3.7 4-5 8-4.5 27.2 3.7 53.7.8 79.9-7 5-1.6 13.3-8 16.2 1.6 3 10.2-6.8 10.8-13.4 13l-12 3.9ZM260.5 33.1c-7.2 2.7-13.5 5.3-19.9 7.6-2.4.8-5.1.9-6.8-1.8-1.6-2.4-1-4.4.5-7 13.4-22 56.2-24.9 71-4.4 1.9 2.4 3.3 5 4.2 7.8 1.3 4.1 2.4 9.2-2.2 11.5-4.3 2.2-7.7-1.1-10.7-4.5-14-15.5-17-16.3-36-9.2Z" fill="#000"/></g><g transform="translate(0 559)"></g></g></svg>