<svg xmlns="http://www.w3.org/2000/svg" viewBox="0 0 1744 1744" fill="none" shape-rendering="auto"><metadata xmlns:rdf="http://www.w3.org/1999/02/22-rdf-syntax-ns#" xmlns:xsi="http://www.w3.org/2001/XMLSchema-instance" xmlns:dc="http://purl.org/dc/elements/1.1/" xmlns:dcterms="http://purl.org/dc/terms/"><rdf:RDF><rdf:Description><dc:title>Notionists</dc:title><dc:creator>Zoish</dc:creator><dc:source xsi:type="dcterms:URI">https://heyzoish.gumroad.com/l/notionists</dc:source><dcterms:license xsi:type="dcterms:URI">https://creativecommons.org/publicdomain/zero/1.0/</dcterms:license><dc:rights>Remix of „Notionists” (https://heyzoish.gumroad.com/l/notionists) by „Zoish”, licensed under „CC0 1.0” (https://creativecommons.org/publicdomain/zero/1.0/)</dc:rights></rdf:Description></rdf:RDF></metadata><mask id="viewboxMask"><rect width="1744" height="1744" rx="872" ry="872" x="0" y="0" fill="#fff" /></mask><g mask="url(#viewboxMask)"><rect fill="#ffdfbf" width="1744" height="1744" x="0" y="0" /><g transform="translate(531 487)"><path d="M554 727.7c-99.2 297-363.8 388.6-503.7 19.8-19.3-50.7 31-69.5 66.2-91.9 24.1-15.3 36.8-28.5 35.3-42.2-7-64.4-36.9-243.8-36.9-243.8l-3-5.8s.7-1.6-2.2 1.2c-3 3-9.9 34.2-37 34.2-24.5 0-49.2-10.9-61-86.3C7.2 285.6 9.6 214 40 201c12.5-5.3 24-7.2 35.2-.8 11.3 6.4-13-22 112-126C268.4 6.4 396.7-3.5 448.5 8 500.3 19.5 552 44.8 574.9 98.5c27.8 65-25.9 114.3-14 262.5-2.2 53.6.8 171.2-146.6 210.6-28 7.5-19.3 48.4 22.7 58.4 67 21 117 72.3 117 97.9" fill="#fff"/><path fill-rule="evenodd" clip-rule="evenodd" d="m554 266.2.1-1.4c4.1-36.4 8.2-71.7 27.1-103.4 6.5 4.4 5.7 10 3.7 15.2-19.9 51.2-18 104.4-16.2 157.6l.4 14c2.1 66.4-14.5 126.8-58.7 177.5-15.4 17.6-35.8 29.8-56.5 40.3-21.4 11-25.9 20.1-19.2 43.6l.8 2.6c1.4 3.9 2.8 7.9-1 11.8-4.5 4.6-9.5 3.3-14.8 1.8l-.6-.1a406.4 406.4 0 0 1-137-68.3c-6-4.4-10.8-10.3-15.5-16.1l-.3-.4c-2.5-3-3-7.8.5-10.4 3.3-2.5 5.8-.5 8.7 1.8l1 .9a145.5 145.5 0 0 0 76.3 31.7c13.4 1.4 26.6.9 40 .4 7.4-.3 14.8-.6 22.3-.5 10.2 0 18.7-4.7 26.7-9.2l2.8-1.6c27.8-15.5 54.3-32.8 72.2-60.7 16.1-25 25.9-52.2 31.6-80.9 7.2-36.1 6.6-72.7 6-109.8-.3-12-.5-24.2-.5-36.4ZM50.6 190.8c21.9-1.7 34 11.2 44.3 26.3a140.4 140.4 0 0 1 22.4 61.5c.5 3.7 1 7.6-1.2 11.3-4.5.6-4.9-3-5-5.6-.5-20.7-9.7-38.7-18.9-56.1-6.6-12.5-16.2-24.6-31.4-27.6-17.2-3.5-33 12-40.8 32.2-14.5 37.6-12 74.6 1.4 111 5.8 15.9 13.1 32.1 27.8 43.2 14.8 11.3 32.7 9.3 43.6-5.7l2-2.5c2-2.6 4-5.1 5-8 2.1-5.8 5.4-11.2 11.3-10.4 6.8 1 8 8.3 8.7 14a3661 3661 0 0 0 22 156.7l5.9 38.8c2.6 17.1 5.6 41.7 3.6 52.1a28 28 0 0 0-.3 2.2c-.4 2.8-.6 5-4.2 5.5-4.9.8-7-2-7.7-6.4-2.3-17-3-23.6-4-49.6-.9-25.2-5.6-50-10.4-74.9l-5-27c-5.2-30.8-10.3-62-10.8-97l-2 3c-7.6 11.3-13.7 20.5-24.5 24a40.5 40.5 0 0 1-46.1-12.5 127.8 127.8 0 0 1-28.8-55.8c-8.4-34-9.9-67.1.9-100.6 5.2-16.1 23.7-44.7 42.2-42Zm34.6 127.5c4.4 3.2 8.4 6 12-5.4-1.1-42.2-14.7-69.2-35.8-70.3 11.2 14.6 22 28.8 23 48.5a32.3 32.3 0 0 1-10.7-8.8c-2-2.2-4-4.4-6.5-6l-3-2.4c-4.8-3.6-9.7-7.4-17.8-4.5 3.8 5.8 9 10 14.3 14 6 4.7 12 9.3 15.6 16.5-10.6 7.7-15.2 17.7-9.7 29.9 4.8 10.5 11.9 19.2 25.9 19.8-.6-6.3-4.7-10.9-8.8-15.4-5-5.4-9.7-10.6-7.5-18.6 3.2-1.5 6.2.7 9 2.7Z" fill="#000"/></g><g transform="translate(178 1057)"><path d="M1301.3 694.3S1276 480.8 1263 423.6c-25.7-111.8-73.3-201.4-135.3-220.5-29.6-9.2-39.4-34-47-53.2-3-7.8-5.8-14.7-9.3-19.2C1040 90.7 975 50.5 941 37.3 914.5 27 838.5 20.6 813 30.7c-11.5 4.5-16.2 11-17.6 18.5-1.5.5-3 1.1-4.4 2-3.3 1.8-6 5-9.5 9C768 75.7 745 102.1 653.7 98c-72.5-3.2-120.5-13.8-149-58.3-2.3-3.6-5-4.8-8-4.2a223.7 223.7 0 0 0-163 19C316.2 64 219.4 158.4 218.4 163.7c-2 10.6-25.6 28-55.2 47.6C100.9 252.4 73.6 333 49.3 404.4l-6.6 19.2C31.8 455.2 6.1 692 6.1 692l176 2.3h1119.2Z" fill="#fff"/><mask id="bodyVariant07-a" style="mask-type:luminance" maskUnits="userSpaceOnUse" x="453" y="259" width="392" height="433"><path d="m467 692-14-432.5h392V692H467Z" fill="#fff"/></mask><g mask="url(#bodyVariant07-a)"><g transform="translate(396 278)" style="mix-blend-mode:difference"><path d="M204.9 175.7s150.1 43.7 172 42.1c9.5-.6 13.6-7 11.8-16.2a28 28 0 0 0-5.5-12c-2.9-4-186-225.6-203.5-184.5a16 16 0 0 0 .5 12.5c4.3 8 10.8 14.4 16.3 21.3 21.4 24.8 41.6 50.6 63.1 75.3 12.7 14.9 30.5 34.2 37.9 47.7-5.4-.5-15.1-3.5-21.1-4.9-13.5-3.4-27-7-40.5-10.3a313.1 313.1 0 0 0-60.2-9.7c-9.2-.1-20.4-.4-27 7.1-5.2 6.5-6 15.8-2.8 23.3 4 8.3 10.7 15 16.6 22a855 855 0 0 0 29.6 30.9c18.8 18.5 37.3 37.2 56.2 55.5 22 21 43.5 42.3 65 63.7 15.9 15.5 32 30.7 47.9 46.2 4.8 4.7 9.6 9.4 14.8 13.7l5.3 4.2c1.2.8 2.4 1.7 3.9 1.8 2.5-.4 3.3-3.5 3.6-5.7.9-5.8-2.8-10.7-5.6-15.3C358.6 345.7 205 175.7 205 175.7Z" fill="#fff"/></g></g><path d="M467.4 694.3S452.7 266.8 452.7 179c0-72.8 36.6-163 52-139.2 28.5 43.8 77.2 58.4 149.7 61.5 115 5 120.9-41.3 136.6-50 31.4-17.6 52.7 66 52.7 141.4V694" stroke="#000" stroke-width="15"/><path d="M1295 694c-6.2-21.3-11.5-73.3-14.9-102-2.4-20.7-19.6-166.5-38.5-217.4-11.6-31.1-22.4-63-39.5-92.1-11.7-20-29.3-34.3-46-48.9a513 513 0 0 0-67-48.2c-30.9-19.2-63.4-23-97.6-11.7a32 32 0 0 0-21.9 24.3c-13.4 53.3-9.1 107.6-9.8 161.6-.8 69.8 3.1 139.5 5.2 209.2 1.8 57.2 0 66.7-.6 125.2h-14.5c-.9-32.2-.4-15.3-.6-47.5-.2-47.6-.8-95.1-1.6-142.7-.6-37.8-.3-75.7-2.8-113.5-2.6-39.6-2.7-79.1.7-118.6 2.5-28.2.1-57 11.3-84.3 9.4-23 28.3-31.8 49.9-33.5 22.4-1.7 45.7-4.8 69.8 9.3-4.8-16.6-15-24.7-22.6-34-28-34.2-65.5-55.5-103.6-76.8-39.3-22-80.7-19-122.6-17.4-6.5.3-12 3.8-17.8 6.7-7.5 4-15.3 7.3-26.6 4.8 9.5-13 22.1-17.3 35.1-21.1 37.1-10.8 73-5.2 95.7-1.8C943 28 1042.7 76 1089.7 151.5c22.3 35.9 85.8 36.4 143.6 157.6a528 528 0 0 1 34.7 100.7c10.9 44 39.5 252.6 39.5 284.2H1295ZM15.3 694c2-6.9 2.7-9.9 3.6-15.7 4.6-28.4 5.5-57.6 8.9-86.3 2.4-20.7 3.3-41.4 6-62 7.2-52.7 15.6-105 32.5-155.4 10.7-31.7 22.4-63 39.5-92.1 11.7-20 29.3-34.3 46-48.9 20.7-18 43.5-33.7 67-48.2 30.9-19.2 63.4-23 97.6-11.7a32 32 0 0 1 21.9 24.3c13.4 53.3 9.1 107.6 9.8 161.6.8 69.8-3.1 139.5-5.2 209.2-1.8 57.2.5 125 .5 125l14.6.2c.9-32.2.4-15.3.6-47.5.2-47.6.8-95.1 1.6-142.7.6-37.8.3-75.7 2.8-113.5 2.6-39.6 2.7-79.1-.7-118.6-2.5-28.2-.1-57-11.3-84.3-9.4-23-28.3-31.8-50-33.5-22.3-1.7-45.6-4.8-69.7 9.3 4.8-16.6 15-24.7 22.6-34 28-34.2 65.5-55.5 103.5-76.8 39.4-22 80.8-19 122.7-17.4 6.5.3 12 3.8 17.8 6.7 7.5 4 2.3 11.5 6.4.7 5.8-15-2-13.2-15-17-37-10.8-74-4-111 .5-7.4 1-14.8 4.4-21.5 8-51.4 27.8-116 77.2-138.6 117.6-12 21.6-30.7 32.8-47.5 47.7C111 252.3 95.3 263.8 74.6 309a573.6 573.6 0 0 0-34.7 100.7c-11 44-19.1 88.6-22.8 134.2-2.7 32.4-7.4 64.8-10.3 97.4-2 22.8-3.5 39.7-3.5 52.6h12Z" fill="#000"/><path d="M1131.8 694c2-23.7-8-84.7-12.5-115.7-3.3-22.6-3-46-11.4-67.7-2.1-5.4-1.5-12.4 5.3-13.5 6.4-1 9.2 3.5 10.7 10.8 7.8 38.3 11.3 77.2 16 116 3.5 30 7.8 60 8.5 70l-16.6.1ZM193.3 694c1.4-23.6 8-84.7 12.6-115.7 3.3-22.6 3-46 11.4-67.7 2.1-5.4 1.5-12.4-5.3-13.5-6.4-1-9.3 3.5-10.7 10.8-7.8 38.3-11.3 77.2-16 116-3.6 30-5.7 70.1-5.7 70.1h13.7Z" fill="#000"/></g><g transform="translate(266 207)"><path d="M461.8 533c2.5-18.5-.2-36 .9-53.5 1-16 4.6-31.2 15-43.9 2-2 2.6-5 1.8-7.6-6.3-3.4-10 1.8-14 5-20.6 15.8-25 39.2-26.3 62.5-1.7 28.2-14.6 51.8-25.3 76.6-12.4 28.7-18.1 58.4-11.2 89.5a163.6 163.6 0 0 0 31.4 70.1c4.6 5.6 12.6 7.8 14.9 17.2-11.3 4.3-20.3-1.3-29-6.9a128.1 128.1 0 0 1-45-52.4c-14-28.4-25-57.8-22.2-90.6.9-9.9 3.7-19.2 6.6-28.4 8.2-26.3 1.5-50.7-10-74-7.2-14.6-32.4-14-41 .6-12.4 21.3-11 44.4-5.7 66.9 4.6 19.4 17 35.7 26 53.3 25 48.5 54 96.3 52.9 153.3a125.1 125.1 0 0 1-29 77.4 47.8 47.8 0 0 1-27.6 17.4c-9.4 2-18.6 3.3-24.3-6.8-31.2 15.7-55.7 20.3-61 4.2-15.5 5.5-31.7 6.2-47.7 7.4-5 .4-10.8.4-13-5.7-2.1-5.7 1.2-9.3 5.2-13.1 24.6-23.4 39.4-51 41-75.8a90 90 0 0 1-34.4 9c-6.9.2-13.6-2.3-18.6-7-3.8-3.4-4.7-7.2-1.6-12.4a341 341 0 0 0 20.4-36.5c6.7-14.6 7.2-29.8 7.2-44.8 0-18.8-4-37.3-11.7-54.4-12.3-27.5-11.2-56-4.8-84 5-22 10.2-44.5 24.3-63.7 29.5-40.1 64.3-70 118.2-65.5.8 0 1.5-.7 3.3-1.5-2.6-26 1.8-51.9 6.6-77.8a258 258 0 0 1 22.7-64.5c20-41.6 50.7-74.1 87.7-100.8a241.7 241.7 0 0 1 90.3-39.2c21.7-4.8 43.3-8 65.7-7.8 85.8.7 157 33.3 215.7 95.4 32 33.8 51 73.9 62 118.1 6.5 26 13.4 51.8 13.7 79 1.6 119.4-3.5 176-6.7 221.6-3.3 48.5-9.8 90.6-47.8 123-3.9 3.2-8.5 5.5-13 8-5.3 3.3-6.1-1-7-4.8-26.2 21.5-56.9 26.2-69.4 9.6 24.8-3.5 36.6-23 52.4-38.8 29-29 36.7-58.6 38.6-85.6 3.9-56.6-20-61.2-24-96.7-2-16.8 7.9-47.9 8.9-64.7 3.2-53.3-32.5-76.7-74-105.8-19.1-13.4-68.7-64-77.7-100-3.1-12.5-24 94.5-81.4 106.7-29 6.1-49.4 32.2-66.3 57.7-6.1 9.2-8.2 18.8-8.4 28.8-.3 15.4-1.3 30.7-6 45.4a75 75 0 0 1-20.8 30c-30.3 29.2-39.6 65.2-35 105.7a54.8 54.8 0 0 0 12.6 26.2c3.4 4.5 7.5 9.9 3 14.8-4.5 5-10.4 1-15.4-1-29.8-12-36.1-50-32.2-78.7 3.8-28 18.3-50.8 32.7-73.8 2.3-3.6 4.4-7.3 6.8-12Z" fill="#000"/></g><g transform="translate(791 871)"><path d="M197.7 98.9c-6-3.3-11.2-6-16.2-8.9a25 25 0 0 0-24-2 158.4 158.4 0 0 1-49 12.9c-12.6.8-25.3-8.2-25.7-18.7-.2-3-.8-6.2 3-7.4 2.8-1 5.2-.8 8 1.7 15.6 14.3 17.8 14.5 36.2 4.6 7.1-3.7 14-7.5 22-9.8 16.9-4.9 31.4-2 44.3 10 4.6 4.2 9.9 6.4 16.2 2.5 2.9-1.8 6.8-2.9 9.2.5 3 4.2-.7 7-3.4 9.7-5.5 5.6-11.2 10.7-20.6 4.9Z" fill="#000"/></g><g transform="translate(653 805)"></g><g transform="translate(901 668)"><path d="M99.8 182.6c-8.7 16.5-33.4 25.7-48.5 18.9-4.3-2-6.2-5.8-7-10-.5-2.7.9-5.3 3.3-6.5 4.6-2 5.8 2.3 8.6 4.8 7 6 13 .7 19-3.4 5.8-4 9.1-8.5 4.3-14.7-10.5-13.1-14.8-29.2-21.8-44-3.1-6.5-5-13.5-3.8-21 .5-3.3 1.9-5.5 5.6-5.6 2.8 0 5 .8 5.9 3.8 7.5 26.3 23.3 48.6 34.6 73.1.5 1 0 2.5-.2 4.6Z" fill="#000"/></g><g transform="translate(610 680)"><path d="M407.4 122.5c13 .3 25.4 1.1 37.6 2.5 3 .4 5 3.3 5 6.7 0 3.3-1.7 5.6-4.7 7-11.2 4.8-22 8.2-33.7.2-6.5-4.5-9-8.7-4.2-16.4ZM247.6 117c7 0 7.8 3.8 7 8.5-2 10.2-20 22.4-30.4 20.5-5.9-1-10.5-4-10.7-10.5-.2-6.7 4.8-8.2 10.3-8.4 9-.3 15.8-5.2 23.8-10ZM215.1 76.6c5-12 9-29.4 24.1-22.5 20.7 9.4 13.9 30.7 9.7 47.4-1.6 6.3-14.5 15.9-18.3 14.3-16.3-6.8-19.2-21.7-15.5-39.2ZM442 113.4c-8.6 7.5-17 7.6-22.2-1.5-9-16-8.6-32.8 3.3-47.2 2.5-3 13.8-3.6 16.3-1 14 15 14.6 31.8 2.6 49.7Z" fill="#000"/></g><g transform="translate(610 680)"></g><g transform="translate(774 657)"><g fill="#000"><path d="M102.1 42.8c-8.7-12.1-25.2-16-38.8-12.5-12 3.2-21.7 11-33.6 14.4-4 1.1-7.5 2.7-9.7-2.1-1.9-3.9-1.5-7.4 2.2-10.3C41 18 75.8 5.4 100.9 19.4a45.7 45.7 0 0 1 15 15c3.3 4.7 4.5 11.6 0 15.1-5.9 4.6-10-1.2-13.8-6.7ZM288 48.8c-9.7-6.5-18.9-7.3-28-.8-3.2 2.3-6.7 4.8-10 .8-3.3-4.1-2.4-8.6 1.3-12.6 5.6-6.1 13.2-7.1 20.8-8a33.7 33.7 0 0 1 36.7 30c.2 4.3 0 9.1-5.2 10.3-4.7 1-8.3-1.7-10.2-5.9-1.9-4.2-3.2-8.7-5.4-13.8ZM191.6 30c5.2-6.6 8-15 14.5-20.6 2.5-2.1 4.4-5.5 8.5-3.2 3.7 2.1 4 5.9 3 9-3.1 8.6-6.7 17.1-10.7 25.4-2 4-7 5.5-11 4.2-6.6-2-5-7.9-4.4-13.9v-1Z"/><path d="M191.7 29.8c-2 4.2-3.6 8.5-5.7 12.6-1.6 3.1-4.2 5.8-8 4.6-4.6-1.4-5-5.3-4-9.3 1.2-4.1 2.5-8 4-12 2-4.7 1.5-12.4 9.3-11.3 8.4 1.3 4.4 8.4 4.4 14.4v1Z"/></g></g><g transform="translate(0 559)"></g></g></svg>